<?xml version="1.0" encoding="us-ascii" standalone="no"?><svg xmlns="http://www.w3.org/2000/svg" xmlns:xlink="http://www.w3.org/1999/xlink" contentStyleType="text/css" height="1442px" preserveAspectRatio="none" style="width:1206px;height:1442px;background:#FFFFFF;" version="1.1" viewBox="0 0 1206 1442" width="1206px" zoomAndPan="magnify"><defs/><g><!--cluster Legend--><g id="cluster_Legend"><rect fill="none" height="87" rx="2.5" ry="2.5" style="stroke:#181818;stroke-width:1.0;" width="472" x="105.15" y="208.41"/><path d="M174.15,208.41 L174.15,217.7069 L164.15,227.7069 L105.15,227.7069 " fill="none" style="stroke:#181818;stroke-width:1.0;"/><text fill="#000000" font-family="sans-serif" font-size="14" font-weight="bold" lengthAdjust="spacing" textLength="59" x="108.15" y="222.4051">Legend</text></g><!--cluster HotShotExternal--><g id="cluster_HotShotExternal"><path d="M1049.65,192.41 L1186.65,192.41 A3.75,3.75 0 0 1 1189.15,194.91 L1196.15,231.0038 L1196.65,231.0038 A2.5,2.5 0 0 1 1199.15,233.5038 L1199.15,292.91 A2.5,2.5 0 0 1 1196.65,295.41 L1049.65,295.41 A2.5,2.5 0 0 1 1047.15,292.91 L1047.15,194.91 A2.5,2.5 0 0 1 1049.65,192.41 " fill="none" style="stroke:#000000;stroke-width:1.5;"/><line style="stroke:#000000;stroke-width:1.5;" x1="1047.15" x2="1196.15" y1="231.0038" y2="231.0038"/><text fill="#000000" font-family="sans-serif" font-size="14" font-weight="bold" lengthAdjust="spacing" textLength="63" x="1087.65" y="207.4051">HotShot</text><text fill="#000000" font-family="sans-serif" font-size="14" font-weight="bold" lengthAdjust="spacing" textLength="136" x="1051.15" y="223.702">(other instances)</text></g><!--cluster Decentralized Sequencer--><g id="cluster_Decentralized Sequencer"><path d="M638.65,63.41 L839.65,63.41 A3.75,3.75 0 0 1 842.15,65.91 L849.15,85.7069 L1020.65,85.7069 A2.5,2.5 0 0 1 1023.15,88.2069 L1023.15,471.91 A2.5,2.5 0 0 1 1020.65,474.41 L638.65,474.41 A2.5,2.5 0 0 1 636.15,471.91 L636.15,65.91 A2.5,2.5 0 0 1 638.65,63.41 " fill="none" style="stroke:#000000;stroke-width:1.5;"/><line style="stroke:#000000;stroke-width:1.5;" x1="636.15" x2="849.15" y1="85.7069" y2="85.7069"/><text fill="#000000" font-family="sans-serif" font-size="14" font-weight="bold" lengthAdjust="spacing" textLength="200" x="640.15" y="78.4051">Decentralized Sequencer</text></g><!--cluster zkApp--><g id="cluster_zkApp"><path d="M662.65,106.41 L748.65,106.41 A3.75,3.75 0 0 1 751.15,108.91 L758.15,128.7069 L996.65,128.7069 A2.5,2.5 0 0 1 999.15,131.2069 L999.15,447.91 A2.5,2.5 0 0 1 996.65,450.41 L662.65,450.41 A2.5,2.5 0 0 1 660.15,447.91 L660.15,108.91 A2.5,2.5 0 0 1 662.65,106.41 " fill="none" style="stroke:#000000;stroke-width:1.5;"/><line style="stroke:#000000;stroke-width:1.5;" x1="660.15" x2="758.15" y1="128.7069" y2="128.7069"/><text fill="#000000" font-family="sans-serif" font-size="14" font-weight="bold" lengthAdjust="spacing" textLength="85" x="664.15" y="121.4051">zkEVM app</text></g><!--cluster App--><g id="cluster_App"><path d="M694.65,157.41 L900.65,157.41 A3.75,3.75 0 0 1 903.15,159.91 L910.15,179.7069 L964.65,179.7069 A2.5,2.5 0 0 1 967.15,182.2069 L967.15,324.91 A2.5,2.5 0 0 1 964.65,327.41 L694.65,327.41 A2.5,2.5 0 0 1 692.15,324.91 L692.15,159.91 A2.5,2.5 0 0 1 694.65,157.41 " fill="none" style="stroke:#000000;stroke-width:1.5;"/><line style="stroke:#000000;stroke-width:1.5;" x1="692.15" x2="910.15" y1="179.7069" y2="179.7069"/><text fill="#000000" font-family="sans-serif" font-size="14" font-weight="bold" lengthAdjust="spacing" textLength="205" x="696.15" y="172.4051">Txn-ordering HotShot app</text></g><!--cluster HotShot--><g id="cluster_HotShot"><path d="M726.65,208.41 L790.65,208.41 A3.75,3.75 0 0 1 793.15,210.91 L800.15,230.7069 L924.65,230.7069 A2.5,2.5 0 0 1 927.15,233.2069 L927.15,292.91 A2.5,2.5 0 0 1 924.65,295.41 L726.65,295.41 A2.5,2.5 0 0 1 724.15,292.91 L724.15,210.91 A2.5,2.5 0 0 1 726.65,208.41 " fill="none" style="stroke:#000000;stroke-width:1.5;"/><line style="stroke:#000000;stroke-width:1.5;" x1="724.15" x2="800.15" y1="230.7069" y2="230.7069"/><text fill="#000000" font-family="sans-serif" font-size="14" font-weight="bold" lengthAdjust="spacing" textLength="63" x="728.15" y="223.4051">HotShot</text></g><!--cluster Adaptor--><g id="cluster_Adaptor"><path d="M750.65,531.41 L838.65,531.41 A3.75,3.75 0 0 1 841.15,533.91 L848.15,553.7069 L988.65,553.7069 A2.5,2.5 0 0 1 991.15,556.2069 L991.15,653.91 A2.5,2.5 0 0 1 988.65,656.41 L750.65,656.41 A2.5,2.5 0 0 1 748.15,653.91 L748.15,533.91 A2.5,2.5 0 0 1 750.65,531.41 " fill="none" style="stroke:#000000;stroke-width:1.5;"/><line style="stroke:#000000;stroke-width:1.5;" x1="748.15" x2="848.15" y1="553.7069" y2="553.7069"/><text fill="#000000" font-family="sans-serif" font-size="14" font-weight="bold" lengthAdjust="spacing" textLength="87" x="752.15" y="546.4051">L2 Adaptor</text></g><!--cluster L1--><g id="cluster_L1"><path d="M478.65,1348.41 L579.65,1348.41 A3.75,3.75 0 0 1 582.15,1350.91 L589.15,1370.7069 L631.65,1370.7069 A2.5,2.5 0 0 1 634.15,1373.2069 L634.15,1432.91 A2.5,2.5 0 0 1 631.65,1435.41 L478.65,1435.41 A2.5,2.5 0 0 1 476.15,1432.91 L476.15,1350.91 A2.5,2.5 0 0 1 478.65,1348.41 " fill="none" style="stroke:#000000;stroke-width:1.5;"/><line style="stroke:#000000;stroke-width:1.5;" x1="476.15" x2="589.15" y1="1370.7069" y2="1370.7069"/><text fill="#000000" font-family="sans-serif" font-size="14" font-weight="bold" lengthAdjust="spacing" textLength="100" x="480.15" y="1363.4051">Ethereum L1</text></g><!--cluster L2--><g id="cluster_L2"><path d="M63.65,713.41 L197.65,713.41 A3.75,3.75 0 0 1 200.15,715.91 L207.15,735.7069 L590.65,735.7069 A2.5,2.5 0 0 1 593.15,738.2069 L593.15,1281.91 A2.5,2.5 0 0 1 590.65,1284.41 L63.65,1284.41 A2.5,2.5 0 0 1 61.15,1281.91 L61.15,715.91 A2.5,2.5 0 0 1 63.65,713.41 " fill="none" style="stroke:#000000;stroke-width:1.5;"/><line style="stroke:#000000;stroke-width:1.5;" x1="61.15" x2="207.15" y1="735.7069" y2="735.7069"/><text fill="#000000" font-family="sans-serif" font-size="14" font-weight="bold" lengthAdjust="spacing" textLength="133" x="65.15" y="728.4051">L2 (zkevm-node)</text></g><!--cluster HermezProver--><g id="cluster_HermezProver"><path d="M100.65,1041.41 L220.65,1041.41 A3.75,3.75 0 0 1 223.15,1043.91 L230.15,1063.7069 L445.65,1063.7069 A2.5,2.5 0 0 1 448.15,1066.2069 L448.15,1151.91 A2.5,2.5 0 0 1 445.65,1154.41 L100.65,1154.41 A2.5,2.5 0 0 1 98.15,1151.91 L98.15,1043.91 A2.5,2.5 0 0 1 100.65,1041.41 " fill="none" style="stroke:#000000;stroke-width:1.5;"/><line style="stroke:#000000;stroke-width:1.5;" x1="98.15" x2="230.15" y1="1063.7069" y2="1063.7069"/><text fill="#000000" font-family="sans-serif" font-size="14" font-weight="bold" lengthAdjust="spacing" textLength="119" x="102.15" y="1056.4051">Hermez Prover</text></g><!--entity Original--><g id="elem_Original"><rect fill="#98FB98" height="36.2969" rx="2.5" ry="2.5" style="stroke:#181818;stroke-width:0.5;" width="151" x="205.65" y="243.41"/><text fill="#000000" font-family="sans-serif" font-size="14" lengthAdjust="spacing" textLength="131" x="215.65" y="266.4051">zkevm-node "as is"</text></g><!--entity Modified--><g id="elem_Modified"><rect fill="#FFB6C1" height="36.2969" rx="2.5" ry="2.5" style="stroke:#181818;stroke-width:0.5;" width="169" x="391.65" y="243.41"/><text fill="#000000" font-family="sans-serif" font-size="14" lengthAdjust="spacing" textLength="149" x="401.65" y="266.4051">zkevm-node modified</text></g><!--entity New--><g id="elem_New"><rect fill="#F1F1F1" height="36.2969" rx="2.5" ry="2.5" style="stroke:#181818;stroke-width:0.5;" width="49" x="121.65" y="243.41"/><text fill="#000000" font-family="sans-serif" font-size="14" lengthAdjust="spacing" textLength="29" x="131.65" y="266.4051">new</text></g><!--entity GossipExternal--><g id="elem_GossipExternal"><rect fill="#F1F1F1" height="36.2969" rx="2.5" ry="2.5" style="stroke:#181818;stroke-width:0.5;" width="68" x="1063.15" y="243.41"/><text fill="#000000" font-family="sans-serif" font-size="14" lengthAdjust="spacing" textLength="48" x="1073.15" y="266.4051">Gossip</text></g><!--entity QueryService--><g id="elem_QueryService"><rect fill="#F1F1F1" height="36.2969" rx="2.5" ry="2.5" style="stroke:#181818;stroke-width:0.5;" width="115" x="686.65" y="398.41"/><text fill="#000000" font-family="sans-serif" font-size="14" lengthAdjust="spacing" textLength="95" x="696.65" y="421.4051">Query Service</text></g><!--entity Submit--><g id="elem_Submit"><rect fill="#F1F1F1" height="36.2969" rx="2.5" ry="2.5" style="stroke:#181818;stroke-width:0.5;" width="93" x="836.65" y="398.41"/><text fill="#000000" font-family="sans-serif" font-size="14" lengthAdjust="spacing" textLength="73" x="846.65" y="421.4051">Submit API</text></g><!--entity GossipInternal--><g id="elem_GossipInternal"><rect fill="#F1F1F1" height="36.2969" rx="2.5" ry="2.5" style="stroke:#181818;stroke-width:0.5;" width="68" x="843.15" y="243.41"/><text fill="#000000" font-family="sans-serif" font-size="14" lengthAdjust="spacing" textLength="48" x="853.15" y="266.4051">Gossip</text></g><!--entity HotShotEvents--><g id="elem_HotShotEvents"><rect fill="#F1F1F1" height="36.2969" rx="2.5" ry="2.5" style="stroke:#181818;stroke-width:0.5;" width="67" x="740.65" y="243.41"/><text fill="#000000" font-family="sans-serif" font-size="14" lengthAdjust="spacing" textLength="47" x="750.65" y="266.4051">Events</text></g><!--entity AdaptorSubmit--><g id="elem_AdaptorSubmit"><ellipse cx="879.15" cy="603.41" fill="#F1F1F1" rx="8" ry="8" style="stroke:#181818;stroke-width:0.5;"/><text fill="#000000" font-family="sans-serif" font-size="14" lengthAdjust="spacing" textLength="160" x="799.15" y="633.4051">JSON-RPC (submit only)</text></g><!--entity Rollup--><g id="elem_Rollup"><rect fill="#98FB98" height="36.2969" rx="2.5" ry="2.5" style="stroke:#181818;stroke-width:0.5;" width="126" x="492.15" y="1383.41"/><text fill="#000000" font-family="sans-serif" font-size="14" lengthAdjust="spacing" textLength="106" x="502.15" y="1406.4051">Rollup Contract</text></g><!--entity JsonRPC--><g id="elem_JsonRPC"><rect fill="#98FB98" height="36.2969" rx="2.5" ry="2.5" style="stroke:#181818;stroke-width:0.5;" width="78" x="496.15" y="750.41"/><text fill="#000000" font-family="sans-serif" font-size="14" lengthAdjust="spacing" textLength="58" x="506.15" y="773.4051">JsonRPC</text></g><g id="elem_GMN25"><path d="M209.65,748.41 L209.65,788.6756 A0,0 0 0 0 209.65,788.6756 L460.65,788.6756 A0,0 0 0 0 460.65,788.6756 L460.65,772.41 L495.72,768.41 L460.65,764.41 L460.65,758.41 L450.65,748.41 L209.65,748.41 A0,0 0 0 0 209.65,748.41 " fill="#FEFFDD" style="stroke:#181818;stroke-width:0.5;"/><path d="M450.65,748.41 L450.65,758.41 L460.65,758.41 L450.65,748.41 " fill="#FEFFDD" style="stroke:#181818;stroke-width:0.5;"/><text fill="#000000" font-family="sans-serif" font-size="13" lengthAdjust="spacing" textLength="220" x="215.65" y="765.4769">Configured to forward transactions</text><text fill="#000000" font-family="sans-serif" font-size="13" lengthAdjust="spacing" textLength="230" x="215.65" y="780.6097">to the Submit API of the L2 adaptor.</text></g><!--entity L2DB--><g id="elem_L2DB"><path d="M437.15,909.41 C437.15,899.41 507.15,899.41 507.15,899.41 C507.15,899.41 577.15,899.41 577.15,909.41 L577.15,934.7069 C577.15,944.7069 507.15,944.7069 507.15,944.7069 C507.15,944.7069 437.15,944.7069 437.15,934.7069 L437.15,909.41 " fill="#98FB98" style="stroke:#181818;stroke-width:0.5;"/><path d="M437.15,909.41 C437.15,919.41 507.15,919.41 507.15,919.41 C507.15,919.41 577.15,919.41 577.15,909.41 " fill="none" style="stroke:#181818;stroke-width:0.5;"/><text fill="#000000" font-family="sans-serif" font-size="14" lengthAdjust="spacing" textLength="120" x="447.15" y="936.4051">L2 Blockchain DB</text></g><!--entity Etherman--><g id="elem_Etherman"><rect fill="#98FB98" height="36.2969" rx="2.5" ry="2.5" style="stroke:#181818;stroke-width:0.5;" width="87" x="436.65" y="1232.41"/><text fill="#000000" font-family="sans-serif" font-size="14" lengthAdjust="spacing" textLength="67" x="446.65" y="1255.4051">Etherman</text></g><!--entity Aggregator--><g id="elem_Aggregator"><rect fill="#98FB98" height="36.2969" rx="2.5" ry="2.5" style="stroke:#181818;stroke-width:0.5;" width="97" x="77.65" y="750.41"/><text fill="#000000" font-family="sans-serif" font-size="14" lengthAdjust="spacing" textLength="77" x="87.65" y="773.4051">Aggregator</text></g><!--entity State--><g id="elem_State"><rect fill="#98FB98" height="52.5938" rx="2.5" ry="2.5" style="stroke:#181818;stroke-width:0.5;" width="64" x="307.15" y="895.41"/><text fill="#000000" font-family="sans-serif" font-size="14" lengthAdjust="spacing" textLength="36" x="317.15" y="918.4051">State</text><text fill="#000000" font-family="sans-serif" font-size="14" lengthAdjust="spacing" textLength="44" x="317.15" y="934.702">Library</text></g><!--entity Synchronizer--><g id="elem_Synchronizer"><rect fill="#98FB98" height="36.2969" rx="2.5" ry="2.5" style="stroke:#181818;stroke-width:0.5;" width="110" x="467.15" y="1089.41"/><text fill="#000000" font-family="sans-serif" font-size="14" lengthAdjust="spacing" textLength="90" x="477.15" y="1112.4051">Synchronizer</text></g><!--entity Prover--><g id="elem_Prover"><rect fill="#98FB98" height="36.2969" rx="2.5" ry="2.5" style="stroke:#181818;stroke-width:0.5;" width="64" x="114.15" y="1089.41"/><text fill="#000000" font-family="sans-serif" font-size="14" lengthAdjust="spacing" textLength="44" x="124.15" y="1112.4051">Prover</text></g><!--entity Executor--><g id="elem_Executor"><rect fill="#98FB98" height="36.2969" rx="2.5" ry="2.5" style="stroke:#181818;stroke-width:0.5;" width="81" x="213.65" y="1089.41"/><text fill="#000000" font-family="sans-serif" font-size="14" lengthAdjust="spacing" textLength="61" x="223.65" y="1112.4051">Executor</text></g><!--entity Tree--><g id="elem_Tree"><path d="M330.15,1086.41 C330.15,1076.41 381.15,1076.41 381.15,1076.41 C381.15,1076.41 432.15,1076.41 432.15,1086.41 L432.15,1128.0038 C432.15,1138.0038 381.15,1138.0038 381.15,1138.0038 C381.15,1138.0038 330.15,1138.0038 330.15,1128.0038 L330.15,1086.41 " fill="#98FB98" style="stroke:#181818;stroke-width:0.5;"/><path d="M330.15,1086.41 C330.15,1096.41 381.15,1096.41 381.15,1096.41 C381.15,1096.41 432.15,1096.41 432.15,1086.41 " fill="none" style="stroke:#181818;stroke-width:0.5;"/><text fill="#000000" font-family="sans-serif" font-size="14" lengthAdjust="spacing" textLength="81" x="340.15" y="1113.4051">L2 State DB</text><text fill="#000000" font-family="sans-serif" font-size="14" lengthAdjust="spacing" textLength="82" x="340.15" y="1129.702">Merkle Tree</text></g><!--entity User--><g id="elem_User"><rect fill="#FFFFFF" height="36.2969" rx="2.5" ry="2.5" style="stroke:#181818;stroke-width:0.5;" width="52" x="679.15" y="750.41"/><text fill="#000000" font-family="sans-serif" font-size="14" lengthAdjust="spacing" textLength="32" x="689.15" y="773.4051">User</text></g><!--link New to Original--><!--link Original to Modified--><!--link User to JsonRPC--><g id="link_User_JsonRPC"><path d="M678.89,768.41 C652.76,768.41 612.13,768.41 580.73,768.41 " fill="none" id="User-to-JsonRPC" style="stroke:#181818;stroke-width:1.0;"/><polygon fill="#181818" points="576.09,768.41,585.09,772.41,581.09,768.41,585.09,764.41,576.09,768.41" style="stroke:#181818;stroke-width:1.0;"/><text fill="#000000" font-family="sans-serif" font-size="13" lengthAdjust="spacing" textLength="52" x="600.65" y="746.4769">EVM txn</text><text fill="#000000" font-family="sans-serif" font-size="13" lengthAdjust="spacing" textLength="68" x="592.65" y="761.6097">EVM query</text></g><!--reverse link AdaptorSubmit to JsonRPC--><g id="link_AdaptorSubmit_JsonRPC"><path d="M865.94,616.75 C848.96,631.96 817.98,657.62 787.15,672.41 C735.34,697.26 716,685.38 662.15,705.41 C628.46,717.94 591.74,736.44 566.49,749.96 " fill="none" id="AdaptorSubmit-backto-JsonRPC" style="stroke:#181818;stroke-width:1.0;"/><polygon fill="#181818" points="869.62,613.4,860.2734,616.5051,865.9242,616.7676,865.6616,622.4184,869.62,613.4" style="stroke:#181818;stroke-width:1.0;"/><text fill="#000000" font-family="sans-serif" font-size="13" lengthAdjust="spacing" textLength="52" x="767.15" y="693.4769">EVM txn</text></g><!--reverse link Submit to AdaptorSubmit--><g id="link_Submit_AdaptorSubmit"><path d="M882.64,441.17 C881.73,483.16 879.88,568.53 879.32,594.64 " fill="none" id="Submit-backto-AdaptorSubmit" style="stroke:#181818;stroke-width:1.0;"/><polygon fill="#181818" points="882.74,436.33,878.5608,445.2482,882.64,441.329,886.5592,445.4082,882.74,436.33" style="stroke:#181818;stroke-width:1.0;"/><text fill="#000000" font-family="sans-serif" font-size="13" lengthAdjust="spacing" textLength="52" x="882.15" y="503.4769">EVM txn</text></g><!--link GossipInternal to GossipExternal--><g id="link_GossipInternal_GossipExternal"><path d="M873.1,236.73 C866.16,184.96 859.18,67.59 932.65,40.41 C1025.68,6 1075.93,172.36 1091.67,236.8 " fill="none" id="GossipInternal-GossipExternal" style="stroke:#181818;stroke-width:1.0;"/><polygon fill="#181818" points="873.77,241.5,876.4685,232.028,873.0689,236.5494,868.5475,233.1498,873.77,241.5" style="stroke:#181818;stroke-width:1.0;"/><polygon fill="#181818" points="1092.82,241.59,1094.5984,231.903,1091.6477,236.7294,1086.8214,233.7787,1092.82,241.59" style="stroke:#181818;stroke-width:1.0;"/></g><!--link QueryService to Adaptor--><g id="link_QueryService_Adaptor"><path d="M745.28,434.81 C746.015,446.145 747.0463,462.0513 748.1834,479.5923 C748.752,488.3629 749.3471,497.5421 749.9449,506.7631 C750.2438,511.3735 750.5433,515.9944 750.8406,520.5798 C750.9892,522.8725 751.1373,525.1563 751.2844,527.4256 C751.3579,528.5602 751.4313,529.6912 751.5043,530.8178 " fill="none" id="QueryService-to-Adaptor" style="stroke:#181818;stroke-width:1.0;"/><polygon fill="#181818" points="751.5043,530.8178,754.9137,521.5779,751.1808,525.8282,746.9304,522.0954,751.5043,530.8178" style="stroke:#181818;stroke-width:1.0;"/><text fill="#000000" font-family="sans-serif" font-size="13" lengthAdjust="spacing" textLength="36" x="750.15" y="503.4769">batch</text></g><!--link Adaptor to Rollup--><g id="link_Adaptor_Rollup"><path d="M769.8328,656.9171 C770.0481,657.8793 770.2635,658.8504 770.4787,659.83 C777.3675,691.1775 784.15,731.23 784.15,767.41 C784.15,767.41 784.15,767.41 784.15,1251.41 C784.15,1328.42 692.05,1367.68 624.67,1386.09 " fill="none" id="Adaptor-to-Rollup" style="stroke:#181818;stroke-width:1.0;"/><polygon fill="#181818" points="620.1,1387.32,629.8251,1388.8767,624.9326,1386.037,627.7723,1381.1445,620.1,1387.32" style="stroke:#181818;stroke-width:1.0;"/><text fill="#000000" font-family="sans-serif" font-size="13" lengthAdjust="spacing" textLength="133" x="785.15" y="1006.4769">ForceBatches(batch)</text></g><!--link JsonRPC to State--><g id="link_JsonRPC_State"><path d="M512.67,786.79 C479.33,812.56 416.42,861.19 376.2,892.27 " fill="none" id="JsonRPC-to-State" style="stroke:#181818;stroke-width:1.0;"/><polygon fill="#181818" points="372.61,895.04,382.1776,892.7031,376.5667,891.9832,377.2867,886.3723,372.61,895.04" style="stroke:#181818;stroke-width:1.0;"/><text fill="#000000" font-family="sans-serif" font-size="13" lengthAdjust="spacing" textLength="68" x="472.15" y="846.4769">EVM query</text></g><!--link State to L2DB--><g id="link_State_L2DB"><path d="M371.54,921.91 C388.39,921.91 409.77,921.91 430.53,921.91 " fill="none" id="State-to-L2DB" style="stroke:#181818;stroke-width:1.0;"/><polygon fill="#181818" points="435.44,921.91,426.44,917.91,430.44,921.91,426.44,925.91,435.44,921.91" style="stroke:#181818;stroke-width:1.0;"/><text fill="#000000" font-family="sans-serif" font-size="13" lengthAdjust="spacing" textLength="29" x="389.65" y="914.9769">read</text></g><!--link State to Tree--><g id="link_State_Tree"><path d="M345.08,948.81 C352.32,980.47 364.63,1034.24 372.82,1070.04 " fill="none" id="State-to-Tree" style="stroke:#181818;stroke-width:1.0;"/><polygon fill="#181818" points="373.87,1074.59,375.7686,1064.9259,372.7582,1069.7152,367.9689,1066.7048,373.87,1074.59" style="stroke:#181818;stroke-width:1.0;"/><text fill="#000000" font-family="sans-serif" font-size="13" lengthAdjust="spacing" textLength="58" x="362.15" y="1006.4769">accounts</text></g><!--link State to Executor--><g id="link_State_Executor"><path d="M311.19,948.89 C303.11,957.61 294.93,967.83 289.15,978.41 C270.72,1012.14 261.44,1056.28 257.22,1082.93 " fill="none" id="State-to-Executor" style="stroke:#181818;stroke-width:1.0;"/><polygon fill="#181818" points="256.48,1087.81,261.7732,1079.5044,257.2231,1082.8655,253.862,1078.3155,256.48,1087.81" style="stroke:#181818;stroke-width:1.0;"/><text fill="#000000" font-family="sans-serif" font-size="13" lengthAdjust="spacing" textLength="53" x="290.15" y="1006.4769">call, etc.</text></g><!--link Aggregator to State--><g id="link_Aggregator_State"><path d="M150.58,786.79 C187.55,813.08 257.97,863.17 301.51,894.14 " fill="none" id="Aggregator-to-State" style="stroke:#181818;stroke-width:1.0;"/><polygon fill="#181818" points="305.45,896.94,300.4401,888.4606,301.3775,894.0392,295.7988,894.9766,305.45,896.94" style="stroke:#181818;stroke-width:1.0;"/><text fill="#000000" font-family="sans-serif" font-size="13" lengthAdjust="spacing" textLength="32" x="262.65" y="831.4769">fetch</text><text fill="#000000" font-family="sans-serif" font-size="13" lengthAdjust="spacing" textLength="41" x="258.15" y="846.6097">prover</text><text fill="#000000" font-family="sans-serif" font-size="13" lengthAdjust="spacing" textLength="32" x="262.65" y="861.7425">input</text></g><!--link Aggregator to Etherman--><g id="link_Aggregator_Etherman"><path d="M117.56,786.74 C89.29,846.54 6,1046.92 98.15,1162.41 C139.15,1213.8 336.05,1237.19 430.02,1245.56 " fill="none" id="Aggregator-to-Etherman" style="stroke:#181818;stroke-width:1.0;"/><polygon fill="#181818" points="434.82,1245.98,426.2092,1241.1994,429.8396,1245.5376,425.5014,1249.168,434.82,1245.98" style="stroke:#181818;stroke-width:1.0;"/><text fill="#000000" font-family="sans-serif" font-size="13" lengthAdjust="spacing" textLength="33" x="60.15" y="1006.4769">proof</text></g><!--link Aggregator to Prover--><g id="link_Aggregator_Prover"><path d="M130.14,786.73 C139.2,827.96 160.15,935.2 155.15,1025.41 C154.07,1044.87 151.55,1066.83 149.45,1082.97 " fill="none" id="Aggregator-to-Prover" style="stroke:#181818;stroke-width:1.0;"/><polygon fill="#181818" points="148.84,1087.58,153.988,1079.1837,149.4971,1082.6234,146.0574,1078.1324,148.84,1087.58" style="stroke:#181818;stroke-width:1.0;"/><text fill="#000000" font-family="sans-serif" font-size="13" lengthAdjust="spacing" textLength="58" x="155.15" y="918.9769">generate</text><text fill="#000000" font-family="sans-serif" font-size="13" lengthAdjust="spacing" textLength="33" x="167.65" y="934.1097">proof</text></g><!--link Etherman to Rollup--><g id="link_Etherman_Rollup"><path d="M475.19,1268.71 C471.29,1285.73 467.89,1312.04 477.15,1332.41 C485.98,1351.82 503.4,1367.86 519.53,1379.47 " fill="none" id="Etherman-to-Rollup" style="stroke:#181818;stroke-width:1.0;"/><polygon fill="#181818" points="523.25,1382.06,518.153,1373.6326,519.1478,1379.2013,513.5791,1380.1961,523.25,1382.06" style="stroke:#181818;stroke-width:1.0;"/><text fill="#000000" font-family="sans-serif" font-size="13" lengthAdjust="spacing" textLength="33" x="478.15" y="1320.9769">proof</text></g><!--reverse link Etherman to Rollup--><g id="link_Etherman_Rollup"><path d="M498.41,1273.67 C504.54,1281.78 511.1,1291.22 516.15,1300.41 C531.32,1328.01 543.46,1362.75 549.96,1383.17 " fill="none" id="Etherman-backto-Rollup" style="stroke:#181818;stroke-width:1.0;"/><polygon fill="#181818" points="495.59,1270.01,497.8886,1279.5869,498.631,1273.979,504.2389,1274.7213,495.59,1270.01" style="stroke:#181818;stroke-width:1.0;"/><text fill="#000000" font-family="sans-serif" font-size="13" lengthAdjust="spacing" textLength="36" x="561.65" y="1313.4769">batch</text><text fill="#000000" font-family="sans-serif" font-size="13" lengthAdjust="spacing" textLength="95" x="532.15" y="1328.6097">global exit root</text></g><!--reverse link Synchronizer to Etherman--><g id="link_Synchronizer_Etherman"><path d="M515.19,1131.76 C506.79,1159.96 492.86,1206.74 485.34,1231.98 " fill="none" id="Synchronizer-backto-Etherman" style="stroke:#181818;stroke-width:1.0;"/><polygon fill="#181818" points="516.57,1127.15,510.1689,1134.6351,515.1437,1131.9423,517.8365,1136.9171,516.57,1127.15" style="stroke:#181818;stroke-width:1.0;"/><text fill="#000000" font-family="sans-serif" font-size="13" lengthAdjust="spacing" textLength="36" x="533.65" y="1183.4769">batch</text><text fill="#000000" font-family="sans-serif" font-size="13" lengthAdjust="spacing" textLength="95" x="504.15" y="1198.6097">global exit root</text></g><!--reverse link State to Synchronizer--><g id="link_State_Synchronizer"><path d="M376.89,941.81 C393.93,951.4 413.67,964.06 429.15,978.41 C465.81,1012.4 497.35,1062.75 512.52,1089.03 " fill="none" id="State-backto-Synchronizer" style="stroke:#181818;stroke-width:1.0;"/><polygon fill="#181818" points="372.55,939.41,378.4945,947.2626,376.9268,941.8273,382.3621,940.2596,372.55,939.41" style="stroke:#181818;stroke-width:1.0;"/><text fill="#000000" font-family="sans-serif" font-size="13" lengthAdjust="spacing" textLength="36" x="499.65" y="991.4769">batch</text><text fill="#000000" font-family="sans-serif" font-size="13" lengthAdjust="spacing" textLength="95" x="470.15" y="1006.6097">global exit root</text><text fill="#000000" font-family="sans-serif" font-size="13" lengthAdjust="spacing" textLength="33" x="501.15" y="1021.7425">state</text></g><!--reverse link App to Submit--><g id="link_App_Submit"><path d="M934.5912,327.4935 C934.5297,327.6328 934.4681,327.7722 934.4065,327.9115 C934.2832,328.1901 934.1597,328.4685 934.0359,328.7467 C933.7884,329.303 933.5399,329.8585 933.2905,330.4129 C931.2953,334.8483 929.2412,339.215 927.15,343.41 C917.48,362.81 904.28,383.85 894.87,398.14 " fill="none" id="App-backto-Submit" style="stroke:#181818;stroke-width:1.0;"/><polygon fill="#181818" points="934.5912,327.4935,927.298,334.1124,932.5725,332.0678,934.617,337.3423,934.5912,327.4935" style="stroke:#181818;stroke-width:1.0;"/><text fill="#000000" font-family="sans-serif" font-size="13" lengthAdjust="spacing" textLength="126" x="923.15" y="364.4769">wrap in HotShot txn</text></g><!--link HotShotEvents to QueryService--><g id="link_HotShotEvents_QueryService"><path d="M770.77,279.66 C765.39,307.1 754.87,360.72 748.79,391.73 " fill="none" id="HotShotEvents-to-QueryService" style="stroke:#181818;stroke-width:1.0;"/><polygon fill="#181818" points="747.86,396.5,753.5068,388.4307,748.8159,391.5922,745.6544,386.9013,747.86,396.5" style="stroke:#181818;stroke-width:1.0;"/></g><!--SRC=[VLRBRjiw4DtpAmREmWbm5I1P2aM0k75VS5gtRkzTr5dGqaWYB9CgHSMF8l_U8Qbtwfj59CsSuHmEpmnTReKikEOxYDIkK1AbMPbZZg0nCbocEJAMa1jXWIdA67upwA0mEMtnUHT85IDCU0cYd4o0db-qI8NaELmiUOxlDQ8y6xTJiKW4nYxmiVw0YuL8CxCKSZiCbBXtmC-uPo-CqGE2dvc8OvHFEhXhCxEMmi3ThCzOj-QF4ZLS_9S9WwpWqPQdj9aFogmoPTRoKfcC_4AML8y8ookNldRF3mQrJJ8gotjLbg9mIF_Q02tdDiS3HeJMF1Sdsl4AVrL86VJ4hTQYJjlvlu_02x_SQNjV50umIFYrGdsa9VIpYD01dQKsZD6hQhCJ1kwN7ntKVpfGc_NxGGPAnwY5J9lTjYGw2br4Wsdi_r-FZxAknr_0ysTwb8CoEqkDVM7D_vT1DHUtS1_pmYZjEVftnqVOR0cF2FLfzULpy6tv5YvBNmGby-DLFwAkHd_fkPK0LZjOt3ZaucPyuDzKdbS5l5NsF2FZKBLjq0BJVj1CYvYMhnVrNxHqBu1833PusVMDvqos8PDFfP9sUuEiKXc471FQRT8WN1M9RoBIIfFyZ894wJtNzAgvB6aNGabVTF9H1Q2JZLt7MYWzzrMx9g2T3pOLlSRSy0qlBU9XrYC3Fzs253VBLRIDCYuaFCp8-DJN_0VKEpp1KgjdzCVfBTxmIlwrUR3dldz-mAYoOXWXMfRVoVIQfUEvCfoAvoZQlqVKszm7ECiJyrgS_kLSR_ldUdjk5ZfnxRWyvxzFKuqfVqM_ty-Murekn4PpVVGzxMYV2LWTPPHf9Mdkw97St32aGLch90GxVCn1hgLz-MM72fjwK3DNxve1CYrKAPngd3WSQgCEr7x0OOE6cX2AdDhmzGgBMyOQwGPLGGG6tTZIO0Dp3HrZs736m1l2ZCOmwuz7wDA5iE4cofeqrkFRE8HtIaSuiruiBntggiVPqh0bzonydPW_XE3ETK58TogF6niPhOP2u56aAZlTEaSZrn0YdkV_09hech6U3dhP4d9cQrcu3bXBkiqhCuOs2Wk1O2ePktttX43tEsed90zhXHdqgZ1olGc2rkLgigRV36f3HSS3dG-13HkepGPqVCw6k5fOR3_uB7vjBsUQEspQZ8BhwxksySZgvHQqjXis413TPo7iDI-iL9kBp2ffSFz04Akz9FZWQlq3]--></g></svg>