<?xml version="1.0" encoding="us-ascii" standalone="no"?><svg xmlns="http://www.w3.org/2000/svg" xmlns:xlink="http://www.w3.org/1999/xlink" contentStyleType="text/css" height="1057px" preserveAspectRatio="none" style="width:1796px;height:1057px;background:#FFFFFF;" version="1.1" viewBox="0 0 1796 1057" width="1796px" zoomAndPan="magnify"><defs/><g><!--cluster Legend--><g id="cluster_Legend"><rect fill="none" height="106" rx="2.5" ry="2.5" style="stroke:#181818;stroke-width:1.0;" width="472" x="7" y="8"/><path d="M76,8 L76,17.2969 L66,27.2969 L7,27.2969 " fill="none" style="stroke:#181818;stroke-width:1.0;"/><text fill="#000000" font-family="sans-serif" font-size="14" font-weight="bold" lengthAdjust="spacing" textLength="59" x="10" y="21.9951">Legend</text></g><!--cluster HotShotExternal--><g id="cluster_HotShotExternal"><path d="M1639.5,466 L1776.5,466 A3.75,3.75 0 0 1 1779,468.5 L1786,504.5938 L1786.5,504.5938 A2.5,2.5 0 0 1 1789,507.0938 L1789,601.5 A2.5,2.5 0 0 1 1786.5,604 L1639.5,604 A2.5,2.5 0 0 1 1637,601.5 L1637,468.5 A2.5,2.5 0 0 1 1639.5,466 " fill="none" style="stroke:#000000;stroke-width:1.5;"/><line style="stroke:#000000;stroke-width:1.5;" x1="1637" x2="1786" y1="504.5938" y2="504.5938"/><text fill="#000000" font-family="sans-serif" font-size="14" font-weight="bold" lengthAdjust="spacing" textLength="63" x="1677.5" y="480.9951">HotShot</text><text fill="#000000" font-family="sans-serif" font-size="14" font-weight="bold" lengthAdjust="spacing" textLength="136" x="1641" y="497.292">(other instances)</text></g><!--cluster Decentralized Sequencer--><g id="cluster_Decentralized Sequencer"><path d="M1228.5,353 L1429.5,353 A3.75,3.75 0 0 1 1432,355.5 L1439,375.2969 L1610.5,375.2969 A2.5,2.5 0 0 1 1613,377.7969 L1613,842.5 A2.5,2.5 0 0 1 1610.5,845 L1228.5,845 A2.5,2.5 0 0 1 1226,842.5 L1226,355.5 A2.5,2.5 0 0 1 1228.5,353 " fill="none" style="stroke:#000000;stroke-width:1.5;"/><line style="stroke:#000000;stroke-width:1.5;" x1="1226" x2="1439" y1="375.2969" y2="375.2969"/><text fill="#000000" font-family="sans-serif" font-size="14" font-weight="bold" lengthAdjust="spacing" textLength="200" x="1230" y="367.9951">Decentralized Sequencer</text></g><!--cluster zkApp--><g id="cluster_zkApp"><path d="M1252.5,396 L1338.5,396 A3.75,3.75 0 0 1 1341,398.5 L1348,418.2969 L1586.5,418.2969 A2.5,2.5 0 0 1 1589,420.7969 L1589,818.5 A2.5,2.5 0 0 1 1586.5,821 L1252.5,821 A2.5,2.5 0 0 1 1250,818.5 L1250,398.5 A2.5,2.5 0 0 1 1252.5,396 " fill="none" style="stroke:#000000;stroke-width:1.5;"/><line style="stroke:#000000;stroke-width:1.5;" x1="1250" x2="1348" y1="418.2969" y2="418.2969"/><text fill="#000000" font-family="sans-serif" font-size="14" font-weight="bold" lengthAdjust="spacing" textLength="85" x="1254" y="410.9951">zkEVM app</text></g><!--cluster App--><g id="cluster_App"><path d="M1284.5,447 L1490.5,447 A3.75,3.75 0 0 1 1493,449.5 L1500,469.2969 L1554.5,469.2969 A2.5,2.5 0 0 1 1557,471.7969 L1557,633.5 A2.5,2.5 0 0 1 1554.5,636 L1284.5,636 A2.5,2.5 0 0 1 1282,633.5 L1282,449.5 A2.5,2.5 0 0 1 1284.5,447 " fill="none" style="stroke:#000000;stroke-width:1.5;"/><line style="stroke:#000000;stroke-width:1.5;" x1="1282" x2="1500" y1="469.2969" y2="469.2969"/><text fill="#000000" font-family="sans-serif" font-size="14" font-weight="bold" lengthAdjust="spacing" textLength="205" x="1286" y="461.9951">Txn-ordering HotShot app</text></g><!--cluster HotShot--><g id="cluster_HotShot"><path d="M1324.5,498 L1388.5,498 A3.75,3.75 0 0 1 1391,500.5 L1398,520.2969 L1522.5,520.2969 A2.5,2.5 0 0 1 1525,522.7969 L1525,601.5 A2.5,2.5 0 0 1 1522.5,604 L1324.5,604 A2.5,2.5 0 0 1 1322,601.5 L1322,500.5 A2.5,2.5 0 0 1 1324.5,498 " fill="none" style="stroke:#000000;stroke-width:1.5;"/><line style="stroke:#000000;stroke-width:1.5;" x1="1322" x2="1398" y1="520.2969" y2="520.2969"/><text fill="#000000" font-family="sans-serif" font-size="14" font-weight="bold" lengthAdjust="spacing" textLength="63" x="1326" y="512.9951">HotShot</text></g><!--cluster Adaptor--><g id="cluster_Adaptor"><path d="M1093.5,716 L1181.5,716 A3.75,3.75 0 0 1 1184,718.5 L1191,738.2969 L1191.5,738.2969 A2.5,2.5 0 0 1 1194,740.7969 L1194,817.5 A2.5,2.5 0 0 1 1191.5,820 L1093.5,820 A2.5,2.5 0 0 1 1091,817.5 L1091,718.5 A2.5,2.5 0 0 1 1093.5,716 " fill="none" style="stroke:#000000;stroke-width:1.5;"/><line style="stroke:#000000;stroke-width:1.5;" x1="1091" x2="1191" y1="738.2969" y2="738.2969"/><text fill="#000000" font-family="sans-serif" font-size="14" font-weight="bold" lengthAdjust="spacing" textLength="87" x="1095" y="730.9951">L2 Adaptor</text></g><!--cluster L1--><g id="cluster_L1"><path d="M606.5,909 L707.5,909 A3.75,3.75 0 0 1 710,911.5 L717,931.2969 L1118.5,931.2969 A2.5,2.5 0 0 1 1121,933.7969 L1121,1047.5 A2.5,2.5 0 0 1 1118.5,1050 L606.5,1050 A2.5,2.5 0 0 1 604,1047.5 L604,911.5 A2.5,2.5 0 0 1 606.5,909 " fill="none" style="stroke:#000000;stroke-width:1.5;"/><line style="stroke:#000000;stroke-width:1.5;" x1="604" x2="717" y1="931.2969" y2="931.2969"/><text fill="#000000" font-family="sans-serif" font-size="14" font-weight="bold" lengthAdjust="spacing" textLength="100" x="608" y="923.9951">Ethereum L1</text></g><!--cluster L2--><g id="cluster_L2"><path d="M505.5,6 L639.5,6 A3.75,3.75 0 0 1 642,8.5 L649,28.2969 L1056.5,28.2969 A2.5,2.5 0 0 1 1059,30.7969 L1059,828 A2.5,2.5 0 0 1 1056.5,830.5 L505.5,830.5 A2.5,2.5 0 0 1 503,828 L503,8.5 A2.5,2.5 0 0 1 505.5,6 " fill="none" style="stroke:#000000;stroke-width:1.5;"/><line style="stroke:#000000;stroke-width:1.5;" x1="503" x2="649" y1="28.2969" y2="28.2969"/><text fill="#000000" font-family="sans-serif" font-size="14" font-weight="bold" lengthAdjust="spacing" textLength="133" x="507" y="20.9951">L2 (zkevm-node)</text></g><!--cluster HermezProver--><g id="cluster_HermezProver"><path d="M687.5,485 L807.5,485 A3.75,3.75 0 0 1 810,487.5 L817,507.2969 L1032.5,507.2969 A2.5,2.5 0 0 1 1035,509.7969 L1035,614.5 A2.5,2.5 0 0 1 1032.5,617 L687.5,617 A2.5,2.5 0 0 1 685,614.5 L685,487.5 A2.5,2.5 0 0 1 687.5,485 " fill="none" style="stroke:#000000;stroke-width:1.5;"/><line style="stroke:#000000;stroke-width:1.5;" x1="685" x2="817" y1="507.2969" y2="507.2969"/><text fill="#000000" font-family="sans-serif" font-size="14" font-weight="bold" lengthAdjust="spacing" textLength="119" x="689" y="499.9951">Hermez Prover</text></g><!--entity Original--><g id="elem_Original"><rect fill="#98FB98" height="36.2969" rx="2.5" ry="2.5" style="stroke:#181818;stroke-width:0.5;" width="151" x="107.5" y="62"/><text fill="#000000" font-family="sans-serif" font-size="14" lengthAdjust="spacing" textLength="131" x="117.5" y="84.9951">zkevm-node "as is"</text></g><!--entity Modified--><g id="elem_Modified"><rect fill="#FFB6C1" height="36.2969" rx="2.5" ry="2.5" style="stroke:#181818;stroke-width:0.5;" width="169" x="293.5" y="62"/><text fill="#000000" font-family="sans-serif" font-size="14" lengthAdjust="spacing" textLength="149" x="303.5" y="84.9951">zkevm-node modified</text></g><!--entity New--><g id="elem_New"><rect fill="#F1F1F1" height="36.2969" rx="2.5" ry="2.5" style="stroke:#181818;stroke-width:0.5;" width="49" x="23.5" y="62"/><text fill="#000000" font-family="sans-serif" font-size="14" lengthAdjust="spacing" textLength="29" x="33.5" y="84.9951">new</text></g><!--entity GossipExternal--><g id="elem_GossipExternal"><rect fill="#F1F1F1" height="36.2969" rx="2.5" ry="2.5" style="stroke:#181818;stroke-width:0.5;" width="68" x="1653" y="552"/><text fill="#000000" font-family="sans-serif" font-size="14" lengthAdjust="spacing" textLength="48" x="1663" y="574.9951">Gossip</text></g><!--entity QueryService--><g id="elem_QueryService"><rect fill="#F1F1F1" height="36.2969" rx="2.5" ry="2.5" style="stroke:#181818;stroke-width:0.5;" width="115" x="1394.5" y="769"/><text fill="#000000" font-family="sans-serif" font-size="14" lengthAdjust="spacing" textLength="95" x="1404.5" y="791.9951">Query Service</text></g><!--entity Submit--><g id="elem_Submit"><rect fill="#F1F1F1" height="36.2969" rx="2.5" ry="2.5" style="stroke:#181818;stroke-width:0.5;" width="93" x="1266.5" y="769"/><text fill="#000000" font-family="sans-serif" font-size="14" lengthAdjust="spacing" textLength="73" x="1276.5" y="791.9951">Submit API</text></g><!--entity GossipInternal--><g id="elem_GossipInternal"><rect fill="#F1F1F1" height="36.2969" rx="2.5" ry="2.5" style="stroke:#181818;stroke-width:0.5;" width="68" x="1441" y="552"/><text fill="#000000" font-family="sans-serif" font-size="14" lengthAdjust="spacing" textLength="48" x="1451" y="574.9951">Gossip</text></g><!--entity HotShotEvents--><g id="elem_HotShotEvents"><rect fill="#F1F1F1" height="36.2969" rx="2.5" ry="2.5" style="stroke:#181818;stroke-width:0.5;" width="67" x="1338.5" y="552"/><text fill="#000000" font-family="sans-serif" font-size="14" lengthAdjust="spacing" textLength="47" x="1348.5" y="574.9951">Events</text></g><!--entity AdaptorSubmit--><g id="elem_AdaptorSubmit"><ellipse cx="1161" cy="787" fill="#F1F1F1" rx="8" ry="8" style="stroke:#181818;stroke-width:0.5;"/><text fill="#000000" font-family="sans-serif" font-size="14" lengthAdjust="spacing" textLength="160" x="1081" y="816.9951">JSON-RPC (submit only)</text></g><!--entity Rollup--><g id="elem_Rollup"><rect fill="#FFB6C1" height="36.2969" rx="2.5" ry="2.5" style="stroke:#181818;stroke-width:0.5;" width="126" x="979" y="980.5"/><text fill="#000000" font-family="sans-serif" font-size="14" lengthAdjust="spacing" textLength="106" x="989" y="1003.4951">Rollup Contract</text></g><g id="elem_GMN23"><path d="M620.5,963 L620.5,1033.5313 A0,0 0 0 0 620.5,1033.5313 L943.5,1033.5313 A0,0 0 0 0 943.5,1033.5313 L943.5,1002.5 L978.83,998.5 L943.5,994.5 L943.5,973 L933.5,963 L620.5,963 A0,0 0 0 0 620.5,963 " fill="#FEFFDD" style="stroke:#181818;stroke-width:0.5;"/><path d="M933.5,963 L933.5,973 L943.5,973 L933.5,963 " fill="#FEFFDD" style="stroke:#181818;stroke-width:0.5;"/><text fill="#000000" font-family="sans-serif" font-size="13" lengthAdjust="spacing" textLength="302" x="626.5" y="980.0669">Contract modified to store batch commitments</text><text fill="#000000" font-family="sans-serif" font-size="13" lengthAdjust="spacing" textLength="291" x="626.5" y="995.1997">instead of batches. ForceBatches replaced by</text><text fill="#000000" font-family="sans-serif" font-size="13" lengthAdjust="spacing" textLength="287" x="626.5" y="1010.3325">Sequence, which validates a QC and stores a</text><text fill="#000000" font-family="sans-serif" font-size="13" lengthAdjust="spacing" textLength="281" x="626.5" y="1025.4653">batch commitment (associated with a GER).</text></g><!--entity JsonRPC--><g id="elem_JsonRPC"><rect fill="#98FB98" height="36.2969" rx="2.5" ry="2.5" style="stroke:#181818;stroke-width:0.5;" width="78" x="965" y="62"/><text fill="#000000" font-family="sans-serif" font-size="14" lengthAdjust="spacing" textLength="58" x="975" y="84.9951">JsonRPC</text></g><g id="elem_GMN28"><path d="M678.5,60 L678.5,100.2656 A0,0 0 0 0 678.5,100.2656 L929.5,100.2656 A0,0 0 0 0 929.5,100.2656 L929.5,84 L964.57,80 L929.5,76 L929.5,70 L919.5,60 L678.5,60 A0,0 0 0 0 678.5,60 " fill="#FEFFDD" style="stroke:#181818;stroke-width:0.5;"/><path d="M919.5,60 L919.5,70 L929.5,70 L919.5,60 " fill="#FEFFDD" style="stroke:#181818;stroke-width:0.5;"/><text fill="#000000" font-family="sans-serif" font-size="13" lengthAdjust="spacing" textLength="220" x="684.5" y="77.0669">Configured to forward transactions</text><text fill="#000000" font-family="sans-serif" font-size="13" lengthAdjust="spacing" textLength="230" x="684.5" y="92.1997">to the Submit API of the L2 adaptor.</text></g><!--entity L2DB--><g id="elem_L2DB"><path d="M903,221 C903,211 973,211 973,211 C973,211 1043,211 1043,221 L1043,246.2969 C1043,256.2969 973,256.2969 973,256.2969 C973,256.2969 903,256.2969 903,246.2969 L903,221 " fill="#98FB98" style="stroke:#181818;stroke-width:0.5;"/><path d="M903,221 C903,231 973,231 973,231 C973,231 1043,231 1043,221 " fill="none" style="stroke:#181818;stroke-width:0.5;"/><text fill="#000000" font-family="sans-serif" font-size="14" lengthAdjust="spacing" textLength="120" x="913" y="247.9951">L2 Blockchain DB</text></g><!--entity Etherman--><g id="elem_Etherman"><rect fill="#FFB6C1" height="36.2969" rx="2.5" ry="2.5" style="stroke:#181818;stroke-width:0.5;" width="87" x="921.5" y="769"/><text fill="#000000" font-family="sans-serif" font-size="14" lengthAdjust="spacing" textLength="67" x="931.5" y="791.9951">Etherman</text></g><g id="elem_GMN37"><path d="M554,759.5 L554,814.8984 A0,0 0 0 0 554,814.8984 L886,814.8984 A0,0 0 0 0 886,814.8984 L886,791 L921.2,787 L886,783 L886,769.5 L876,759.5 L554,759.5 A0,0 0 0 0 554,759.5 " fill="#FEFFDD" style="stroke:#181818;stroke-width:0.5;"/><path d="M876,759.5 L876,769.5 L886,769.5 L876,759.5 " fill="#FEFFDD" style="stroke:#181818;stroke-width:0.5;"/><text fill="#000000" font-family="sans-serif" font-size="13" lengthAdjust="spacing" textLength="279" x="560" y="776.5669">Etherman modified to fetch batch commits,</text><text fill="#000000" font-family="sans-serif" font-size="13" lengthAdjust="spacing" textLength="256" x="560" y="791.6997">not batches, from contract, and to fetch</text><text fill="#000000" font-family="sans-serif" font-size="13" lengthAdjust="spacing" textLength="311" x="560" y="806.8325">the full batches from the HotShot Query Service.</text></g><!--entity Aggregator--><g id="elem_Aggregator"><rect fill="#98FB98" height="36.2969" rx="2.5" ry="2.5" style="stroke:#181818;stroke-width:0.5;" width="97" x="546.5" y="62"/><text fill="#000000" font-family="sans-serif" font-size="14" lengthAdjust="spacing" textLength="77" x="556.5" y="84.9951">Aggregator</text></g><!--entity State--><g id="elem_State"><rect fill="#98FB98" height="52.5938" rx="2.5" ry="2.5" style="stroke:#181818;stroke-width:0.5;" width="64" x="773" y="207"/><text fill="#000000" font-family="sans-serif" font-size="14" lengthAdjust="spacing" textLength="36" x="783" y="229.9951">State</text><text fill="#000000" font-family="sans-serif" font-size="14" lengthAdjust="spacing" textLength="44" x="783" y="246.292">Library</text></g><!--entity Synchronizer--><g id="elem_Synchronizer"><rect fill="#98FB98" height="36.2969" rx="2.5" ry="2.5" style="stroke:#181818;stroke-width:0.5;" width="110" x="556" y="552"/><text fill="#000000" font-family="sans-serif" font-size="14" lengthAdjust="spacing" textLength="90" x="566" y="574.9951">Synchronizer</text></g><!--entity Prover--><g id="elem_Prover"><rect fill="#98FB98" height="36.2969" rx="2.5" ry="2.5" style="stroke:#181818;stroke-width:0.5;" width="64" x="701" y="552"/><text fill="#000000" font-family="sans-serif" font-size="14" lengthAdjust="spacing" textLength="44" x="711" y="574.9951">Prover</text></g><!--entity Executor--><g id="elem_Executor"><rect fill="#98FB98" height="36.2969" rx="2.5" ry="2.5" style="stroke:#181818;stroke-width:0.5;" width="81" x="937.5" y="552"/><text fill="#000000" font-family="sans-serif" font-size="14" lengthAdjust="spacing" textLength="61" x="947.5" y="574.9951">Executor</text></g><!--entity Tree--><g id="elem_Tree"><path d="M800,549 C800,539 851,539 851,539 C851,539 902,539 902,549 L902,590.5938 C902,600.5938 851,600.5938 851,600.5938 C851,600.5938 800,600.5938 800,590.5938 L800,549 " fill="#98FB98" style="stroke:#181818;stroke-width:0.5;"/><path d="M800,549 C800,559 851,559 851,559 C851,559 902,559 902,549 " fill="none" style="stroke:#181818;stroke-width:0.5;"/><text fill="#000000" font-family="sans-serif" font-size="14" lengthAdjust="spacing" textLength="81" x="810" y="575.9951">L2 State DB</text><text fill="#000000" font-family="sans-serif" font-size="14" lengthAdjust="spacing" textLength="82" x="810" y="592.292">Merkle Tree</text></g><!--entity User--><g id="elem_User"><rect fill="#FFFFFF" height="36.2969" rx="2.5" ry="2.5" style="stroke:#181818;stroke-width:0.5;" width="52" x="1148" y="62"/><text fill="#000000" font-family="sans-serif" font-size="14" lengthAdjust="spacing" textLength="32" x="1158" y="84.9951">User</text></g><!--link New to Original--><!--link Original to Modified--><!--link User to JsonRPC--><g id="link_User_JsonRPC"><path d="M1147.74,80 C1121.61,80 1080.98,80 1049.58,80 " fill="none" id="User-to-JsonRPC" style="stroke:#181818;stroke-width:1.0;"/><polygon fill="#181818" points="1044.94,80,1053.94,84,1049.94,80,1053.94,76,1044.94,80" style="stroke:#181818;stroke-width:1.0;"/><text fill="#000000" font-family="sans-serif" font-size="13" lengthAdjust="spacing" textLength="52" x="1069.5" y="58.0669">EVM txn</text><text fill="#000000" font-family="sans-serif" font-size="13" lengthAdjust="spacing" textLength="68" x="1061.5" y="73.1997">EVM query</text></g><!--link JsonRPC to AdaptorSubmit--><g id="link_JsonRPC_AdaptorSubmit"><path d="M1013.88,98.3 C1026.94,122.01 1049.61,166.31 1061,207 C1119.54,416.11 978.99,526.87 1120,692 C1128.4,701.84 1139.45,690.28 1148,700 C1165.41,719.8 1165.12,752.58 1163.17,771.44 " fill="none" id="JsonRPC-to-AdaptorSubmit" style="stroke:#181818;stroke-width:1.0;"/><polygon fill="#181818" points="1162.6,776.2,1167.6496,767.7441,1163.1991,771.236,1159.7072,766.7856,1162.6,776.2" style="stroke:#181818;stroke-width:1.0;"/><text fill="#000000" font-family="sans-serif" font-size="13" lengthAdjust="spacing" textLength="52" x="1077" y="318.0669">EVM txn</text></g><!--link AdaptorSubmit to Submit--><g id="link_AdaptorSubmit_Submit"><path d="M1170.05,787 C1187.43,787 1226.66,787 1259.63,787 " fill="none" id="AdaptorSubmit-to-Submit" style="stroke:#181818;stroke-width:1.0;"/><polygon fill="#181818" points="1264.62,787,1255.62,783,1259.62,787,1255.62,791,1264.62,787" style="stroke:#181818;stroke-width:1.0;"/><text fill="#000000" font-family="sans-serif" font-size="13" lengthAdjust="spacing" textLength="52" x="1192.25" y="780.0669">EVM txn</text></g><!--link GossipInternal to GossipExternal--><g id="link_GossipInternal_GossipExternal"><path d="M1515.8,570 C1559.28,570 1602.76,570 1646.24,570 " fill="none" id="GossipInternal-GossipExternal" style="stroke:#181818;stroke-width:1.0;"/><polygon fill="#181818" points="1510.88,570,1519.88,574,1515.88,570,1519.88,566,1510.88,570" style="stroke:#181818;stroke-width:1.0;"/><polygon fill="#181818" points="1651.14,570,1642.14,566,1646.14,570,1642.14,574,1651.14,570" style="stroke:#181818;stroke-width:1.0;"/></g><!--link QueryService to Adaptor--><g id="link_QueryService_Adaptor"><path d="M1442.14,768.52 C1429.92,747.74 1406.99,714.94 1377,700 C1334.85,679 1145.13,667.53 1122,689.5 C1114.6275,696.505 1110.4363,705.5825 1108.34,715.3761 C1108.3072,715.5291 1108.275,715.6823 1108.2433,715.8357 " fill="none" id="QueryService-to-Adaptor" style="stroke:#181818;stroke-width:1.0;"/><polygon fill="#181818" points="1108.2433,715.8357,1113.9839,707.8329,1109.2564,710.9394,1106.1499,706.2119,1108.2433,715.8357" style="stroke:#181818;stroke-width:1.0;"/><text fill="#000000" font-family="sans-serif" font-size="13" lengthAdjust="spacing" textLength="92" x="1123" y="680.5669">batch_commit</text></g><!--link Adaptor to Rollup--><g id="link_Adaptor_Rollup"><path d="M1105.3242,820.6129 C1105.2389,820.8512 1105.1532,821.0905 1105.0672,821.3307 C1104.8952,821.8111 1104.7218,822.2954 1104.5471,822.7834 C1103.1493,826.6873 1101.6661,830.8302 1100.1146,835.1638 C1097.0115,843.8309 1093.6353,853.2613 1090.1238,863.07 C1076.0775,902.305 1059.865,947.595 1050.3,974.32 " fill="none" id="Adaptor-to-Rollup" style="stroke:#181818;stroke-width:1.0;"/><polygon fill="#181818" points="1048.72,978.73,1055.5236,971.6088,1050.408,974.0236,1047.9933,968.908,1048.72,978.73" style="stroke:#181818;stroke-width:1.0;"/><text fill="#000000" font-family="sans-serif" font-size="13" lengthAdjust="spacing" textLength="193" x="1091" y="881.5669">Sequence(batch_commit, QC)</text></g><!--link JsonRPC to State--><g id="link_JsonRPC_State"><path d="M981.17,98.38 C947.23,124.22 883.08,173.06 842.27,204.13 " fill="none" id="JsonRPC-to-State" style="stroke:#181818;stroke-width:1.0;"/><polygon fill="#181818" points="838.61,206.91,848.1921,204.6332,842.5858,203.8781,843.341,198.2718,838.61,206.91" style="stroke:#181818;stroke-width:1.0;"/><text fill="#000000" font-family="sans-serif" font-size="13" lengthAdjust="spacing" textLength="68" x="940" y="158.0669">EVM query</text></g><!--link State to L2DB--><g id="link_State_L2DB"><path d="M837.39,233.5 C854.24,233.5 875.62,233.5 896.38,233.5 " fill="none" id="State-to-L2DB" style="stroke:#181818;stroke-width:1.0;"/><polygon fill="#181818" points="901.29,233.5,892.29,229.5,896.29,233.5,892.29,237.5,901.29,233.5" style="stroke:#181818;stroke-width:1.0;"/><text fill="#000000" font-family="sans-serif" font-size="13" lengthAdjust="spacing" textLength="29" x="855.5" y="226.5669">read</text></g><!--link State to Tree--><g id="link_State_Tree"><path d="M808.57,260.47 C816.69,319.5 836.55,463.94 845.93,532.16 " fill="none" id="State-to-Tree" style="stroke:#181818;stroke-width:1.0;"/><polygon fill="#181818" points="846.6,537.02,849.3253,527.5557,845.9129,532.0674,841.4012,528.655,846.6,537.02" style="stroke:#181818;stroke-width:1.0;"/><text fill="#000000" font-family="sans-serif" font-size="13" lengthAdjust="spacing" textLength="58" x="819" y="318.0669">accounts</text></g><!--link State to Executor--><g id="link_State_Executor"><path d="M837.34,252.32 C853.2,262.08 871.88,275.2 886,290 C956.39,363.79 972.95,492.51 976.82,545.34 " fill="none" id="State-to-Executor" style="stroke:#181818;stroke-width:1.0;"/><polygon fill="#181818" points="977.15,550.19,980.5231,540.9368,976.807,545.2018,972.542,541.4856,977.15,550.19" style="stroke:#181818;stroke-width:1.0;"/><text fill="#000000" font-family="sans-serif" font-size="13" lengthAdjust="spacing" textLength="53" x="919" y="318.0669">call, etc.</text></g><!--link Aggregator to State--><g id="link_Aggregator_State"><path d="M619.09,98.38 C655.43,124.59 724.57,174.48 767.53,205.46 " fill="none" id="Aggregator-to-State" style="stroke:#181818;stroke-width:1.0;"/><polygon fill="#181818" points="771.4,208.26,766.4437,199.7491,767.3459,205.3336,761.7614,206.2358,771.4,208.26" style="stroke:#181818;stroke-width:1.0;"/><text fill="#000000" font-family="sans-serif" font-size="13" lengthAdjust="spacing" textLength="32" x="729.5" y="143.0669">fetch</text><text fill="#000000" font-family="sans-serif" font-size="13" lengthAdjust="spacing" textLength="41" x="725" y="158.1997">prover</text><text fill="#000000" font-family="sans-serif" font-size="13" lengthAdjust="spacing" textLength="32" x="729.5" y="173.3325">input</text></g><!--link Aggregator to Etherman--><g id="link_Aggregator_Etherman"><path d="M585.65,98.28 C546.32,173.53 402.56,476.72 539,652 C583.49,709.16 625.3,681.66 697,692 C719.78,695.29 883.76,689.04 904,700 C929.05,713.56 946.19,742.42 955.78,762.96 " fill="none" id="Aggregator-to-Etherman" style="stroke:#181818;stroke-width:1.0;"/><polygon fill="#181818" points="957.77,767.4,957.7129,757.5513,955.7128,762.8428,950.4213,760.8428,957.77,767.4" style="stroke:#181818;stroke-width:1.0;"/><text fill="#000000" font-family="sans-serif" font-size="13" lengthAdjust="spacing" textLength="33" x="509" y="318.0669">proof</text></g><!--link Aggregator to Prover--><g id="link_Aggregator_Prover"><path d="M594.43,98.17 C593.88,143.93 598.97,269.88 667,337 C676.82,346.69 687.75,334.76 697,345 C748.09,401.55 742.52,500.57 736.75,545.57 " fill="none" id="Aggregator-to-Prover" style="stroke:#181818;stroke-width:1.0;"/><polygon fill="#181818" points="736.11,550.3,741.2818,541.9183,736.7811,545.3452,733.3542,540.8446,736.11,550.3" style="stroke:#181818;stroke-width:1.0;"/><text fill="#000000" font-family="sans-serif" font-size="13" lengthAdjust="spacing" textLength="58" x="619" y="230.5669">generate</text><text fill="#000000" font-family="sans-serif" font-size="13" lengthAdjust="spacing" textLength="33" x="631.5" y="245.6997">proof</text></g><!--link Etherman to Rollup--><g id="link_Etherman_Rollup"><path d="M975.24,805.23 C983.54,819.74 995.12,841.22 1003,861 C1018.37,899.58 1030.4,946.5 1036.83,974.08 " fill="none" id="Etherman-to-Rollup" style="stroke:#181818;stroke-width:1.0;"/><polygon fill="#181818" points="1037.93,978.85,1039.7955,969.1794,1036.8015,973.979,1032.002,970.985,1037.93,978.85" style="stroke:#181818;stroke-width:1.0;"/><text fill="#000000" font-family="sans-serif" font-size="13" lengthAdjust="spacing" textLength="33" x="1014" y="881.5669">proof</text></g><!--reverse link Etherman to Rollup--><g id="link_Etherman_Rollup"><path d="M938.96,809.57 C925.11,822.79 909.44,840.98 902,861 C897.04,874.33 892.64,882.29 902,893 C910.7,902.96 949.41,894.61 961,901 C994.53,919.47 1020.07,957.78 1032.87,980.18 " fill="none" id="Etherman-backto-Rollup" style="stroke:#181818;stroke-width:1.0;"/><polygon fill="#181818" points="942.47,806.31,933.1554,809.5098,938.8086,809.715,938.6034,815.3681,942.47,806.31" style="stroke:#181818;stroke-width:1.0;"/><text fill="#000000" font-family="sans-serif" font-size="13" lengthAdjust="spacing" textLength="89" x="906" y="874.0669">batch commit</text><text fill="#000000" font-family="sans-serif" font-size="13" lengthAdjust="spacing" textLength="95" x="903" y="889.1997">global exit root</text></g><!--reverse link Etherman to QueryService--><g id="link_Etherman_QueryService"><path d="M987.55,764.21 C1009.71,743.42 1045.57,713.89 1083,700 C1156.88,672.58 1181.27,685.97 1260,689.5 C1312.16,691.84 1330.56,676.15 1377,700 C1406.8,715.3 1429.79,747.99 1442.07,768.65 " fill="none" id="Etherman-backto-QueryService" style="stroke:#181818;stroke-width:1.0;"/><polygon fill="#181818" points="984.13,767.46,993.412,764.167,987.7571,764.0185,987.9056,758.3636,984.13,767.46" style="stroke:#181818;stroke-width:1.0;"/><text fill="#000000" font-family="sans-serif" font-size="13" lengthAdjust="spacing" textLength="36" x="1223" y="680.5669">batch</text></g><!--reverse link Synchronizer to Etherman--><g id="link_Synchronizer_Etherman"><path d="M625.61,593.52 C638.87,612.09 660.11,637.65 685,652 C771.32,701.78 820.92,644.99 904,700 C929.64,716.98 947.9,748.71 957.42,768.52 " fill="none" id="Synchronizer-backto-Etherman" style="stroke:#181818;stroke-width:1.0;"/><polygon fill="#181818" points="622.95,589.72,624.8365,599.3865,625.8183,593.8155,631.3893,594.7973,622.95,589.72" style="stroke:#181818;stroke-width:1.0;"/><text fill="#000000" font-family="sans-serif" font-size="13" lengthAdjust="spacing" textLength="36" x="919.5" y="673.0669">batch</text><text fill="#000000" font-family="sans-serif" font-size="13" lengthAdjust="spacing" textLength="95" x="890" y="688.1997">global exit root</text></g><!--reverse link State to Synchronizer--><g id="link_State_Synchronizer"><path d="M766.76,248.83 C746.7,258 723.04,271.64 707,290 C636.9,370.24 617.34,504.27 612.47,551.72 " fill="none" id="State-backto-Synchronizer" style="stroke:#181818;stroke-width:1.0;"/><polygon fill="#181818" points="771.2,246.86,761.3511,246.8543,766.6298,248.888,764.596,254.1667,771.2,246.86" style="stroke:#181818;stroke-width:1.0;"/><text fill="#000000" font-family="sans-serif" font-size="13" lengthAdjust="spacing" textLength="36" x="737.5" y="303.0669">batch</text><text fill="#000000" font-family="sans-serif" font-size="13" lengthAdjust="spacing" textLength="95" x="708" y="318.1997">global exit root</text><text fill="#000000" font-family="sans-serif" font-size="13" lengthAdjust="spacing" textLength="33" x="739" y="333.3325">state</text></g><!--reverse link App to Submit--><g id="link_App_Submit"><path d="M1297.007,636.4957 C1297.0407,636.8114 1297.0746,637.1277 1297.1085,637.4445 C1297.6506,642.5136 1298.2081,647.7261 1298.775,653.0263 C1303.31,695.4275 1308.445,743.44 1311.13,768.56 " fill="none" id="App-backto-Submit" style="stroke:#181818;stroke-width:1.0;"/><polygon fill="#181818" points="1297.007,636.4957,1293.9868,645.8701,1297.5387,641.4674,1301.9414,645.0193,1297.007,636.4957" style="stroke:#181818;stroke-width:1.0;"/><text fill="#000000" font-family="sans-serif" font-size="13" lengthAdjust="spacing" textLength="126" x="1303" y="680.5669">wrap in HotShot txn</text></g><!--link HotShotEvents to QueryService--><g id="link_HotShotEvents_QueryService"><path d="M1379.94,588.2 C1388.76,605.87 1404.37,633.36 1424,652 C1429.2,656.94 1434.07,654.01 1438,660 C1458.27,690.87 1457.99,735.4 1455.38,762.42 " fill="none" id="HotShotEvents-to-QueryService" style="stroke:#181818;stroke-width:1.0;"/><polygon fill="#181818" points="1454.84,767.39,1459.7933,758.8774,1455.3828,762.4195,1451.8406,758.009,1454.84,767.39" style="stroke:#181818;stroke-width:1.0;"/></g><!--SRC=[VLPDRziu4BtpLmoSGnp02f0SZI10Fhnf2wTDu-xkeGuMj3Io2SkaIb6ndIB_VOUaA5DAqXnYQVY6CtppPgXgBMJ9DTz0gZQbaYZDpEmB18sfuN9P86CvBIDCSOaoWzyC3b0OlApnUPD8bI4CU0MY6Wo0VhzfiHII5t3qm0kyquZoGx-DoaGkC7EEzyqB74t5ScKUX5nt7ILk7V0hRjahO_G3oS-Lo3AKJpgvR2EpDeNESjYViSEUVrUeuUZVbJ38Ifwk-P8EyqcPsKgPkHmgiw9r8IlY8yNgn8LlbYSxWze6wT5ofwfAb0xf7mFGvjp6kCMKq9eNueLEFCDVDL84FN2xjQYNzUIVU-2bt-vbVLMM3j09-Br6lQSjzBD8qG6TfJ7qqRDwiH46hXu-EwX_TQ0swe-TJ9JEK0kv3ATjapYaSF08c63_Cn-VPSF7E-39C_rK7PgTfS6-il3_jSFcz1okCbuQfNsE_jdb8soqdAU4-ZBxzZLvVBY1OUL9KBBOdyGU3HlnrXCh0QmtC3rpoEbPl-2FgYZg4cwKhMTg7AgnTPGibK4eCAUuUGDmnmcERJU0KL1HDWWBRjALZKLPRLeUh1wHPtOR1y3g5FvIEiLh_qODN1PquWmMU-SGv3M2xKhGXiyakumRGdBuVWESUjl5etU7xuU58QygbGfooM0hp8hyxYQF9wU4jeF1demUZsDMhhN8YB-6DVz6t4L3WLZkL71u60o-A6JhKlsbKjBMhpDPEhGsYC1hBfQrzeJcIc-vfaVDPKLi2oKzcxH69OP3NzXzh8N2So-BtZc9EhxWbKNSNaV9m4-t8VbT5ofTfoik9DnUa_4fRkfFg3Vu0WzQFQFNgxTumvl-RioTCyVhanscjLLx3z5c-ODCRxDqUSuCbTIdQF_kKQyBx-0iJymts_4xTJsFwth-qR1ttRFXyW-T420kOekFUo57AyTObDN8eMcVq04ZoBMoDvdlfP4JTV3rTQQIvdLH10_lOArXV7K6QQ_cXoDTBPSQb_mDu_6CjRJEvLGiDDTxFsSTqnyupFOoNMabwIxGlGvn5nHTNesmns0l1BEJSsaVVjcCsR47XRlkCWprur9LmWdT7TEX5cf7yuFwTu661YEuGV5sX-avOw7RA7fdFBOvi8xPule0rftuS46OtgN8uiigYZNsTVhF5po4iW0_EiVjL1l6m14Dj9CeTvkKfTxdvFbYlXZ9fMlWCOrBdWKR6Qtyny3JLDLsuXuMGgUD8UL5CGAIrYbZaHwYQ4vtSrcwvfrB-jAgJHyQn3u6Wgcyl-mRVmpqxONQ2Sh3sXv98Z9wInT9knBtpPo-wjI22e4xAXYvc8vBN8h6aNMqUP4aKTOEyCwMdZ6BZPq_nC_jvnKr6JiEi-xqzBATB6JruanQsnaBYgjBAvYIJhdLlBJ23hrirTVvWe0aKrj9yCx7qVy0]--></g></svg>