<?xml version="1.0" encoding="us-ascii" standalone="no"?><svg xmlns="http://www.w3.org/2000/svg" xmlns:xlink="http://www.w3.org/1999/xlink" contentStyleType="text/css" height="1225px" preserveAspectRatio="none" style="width:1425px;height:1225px;background:#FFFFFF;" version="1.1" viewBox="0 0 1425 1225" width="1425px" zoomAndPan="magnify"><defs/><g><!--cluster Legend--><g id="cluster_Legend"><rect fill="none" height="106" rx="2.5" ry="2.5" style="stroke:#181818;stroke-width:1.0;" width="472" x="126" y="151"/><path d="M195,151 L195,160.2969 L185,170.2969 L126,170.2969 " fill="none" style="stroke:#181818;stroke-width:1.0;"/><text fill="#000000" font-family="sans-serif" font-size="14" font-weight="bold" lengthAdjust="spacing" textLength="59" x="129" y="164.9951">Legend</text></g><!--cluster HotShotExternal--><g id="cluster_HotShotExternal"><path d="M1268.5,119 L1405.5,119 A3.75,3.75 0 0 1 1408,121.5 L1415,157.5938 L1415.5,157.5938 A2.5,2.5 0 0 1 1418,160.0938 L1418,254.5 A2.5,2.5 0 0 1 1415.5,257 L1268.5,257 A2.5,2.5 0 0 1 1266,254.5 L1266,121.5 A2.5,2.5 0 0 1 1268.5,119 " fill="none" style="stroke:#000000;stroke-width:1.5;"/><line style="stroke:#000000;stroke-width:1.5;" x1="1266" x2="1415" y1="157.5938" y2="157.5938"/><text fill="#000000" font-family="sans-serif" font-size="14" font-weight="bold" lengthAdjust="spacing" textLength="63" x="1306.5" y="133.9951">HotShot</text><text fill="#000000" font-family="sans-serif" font-size="14" font-weight="bold" lengthAdjust="spacing" textLength="136" x="1270" y="150.292">(other instances)</text></g><!--cluster Decentralized Sequencer--><g id="cluster_Decentralized Sequencer"><path d="M857.5,6 L1058.5,6 A3.75,3.75 0 0 1 1061,8.5 L1068,28.2969 L1239.5,28.2969 A2.5,2.5 0 0 1 1242,30.7969 L1242,490.5 A2.5,2.5 0 0 1 1239.5,493 L857.5,493 A2.5,2.5 0 0 1 855,490.5 L855,8.5 A2.5,2.5 0 0 1 857.5,6 " fill="none" style="stroke:#000000;stroke-width:1.5;"/><line style="stroke:#000000;stroke-width:1.5;" x1="855" x2="1068" y1="28.2969" y2="28.2969"/><text fill="#000000" font-family="sans-serif" font-size="14" font-weight="bold" lengthAdjust="spacing" textLength="200" x="859" y="20.9951">Decentralized Sequencer</text></g><!--cluster zkApp--><g id="cluster_zkApp"><path d="M881.5,49 L967.5,49 A3.75,3.75 0 0 1 970,51.5 L977,71.2969 L1215.5,71.2969 A2.5,2.5 0 0 1 1218,73.7969 L1218,466.5 A2.5,2.5 0 0 1 1215.5,469 L881.5,469 A2.5,2.5 0 0 1 879,466.5 L879,51.5 A2.5,2.5 0 0 1 881.5,49 " fill="none" style="stroke:#000000;stroke-width:1.5;"/><line style="stroke:#000000;stroke-width:1.5;" x1="879" x2="977" y1="71.2969" y2="71.2969"/><text fill="#000000" font-family="sans-serif" font-size="14" font-weight="bold" lengthAdjust="spacing" textLength="85" x="883" y="63.9951">zkEVM app</text></g><!--cluster App--><g id="cluster_App"><path d="M913.5,100 L1119.5,100 A3.75,3.75 0 0 1 1122,102.5 L1129,122.2969 L1183.5,122.2969 A2.5,2.5 0 0 1 1186,124.7969 L1186,286.5 A2.5,2.5 0 0 1 1183.5,289 L913.5,289 A2.5,2.5 0 0 1 911,286.5 L911,102.5 A2.5,2.5 0 0 1 913.5,100 " fill="none" style="stroke:#000000;stroke-width:1.5;"/><line style="stroke:#000000;stroke-width:1.5;" x1="911" x2="1129" y1="122.2969" y2="122.2969"/><text fill="#000000" font-family="sans-serif" font-size="14" font-weight="bold" lengthAdjust="spacing" textLength="205" x="915" y="114.9951">Txn-ordering HotShot app</text></g><!--cluster HotShot--><g id="cluster_HotShot"><path d="M953.5,151 L1017.5,151 A3.75,3.75 0 0 1 1020,153.5 L1027,173.2969 L1151.5,173.2969 A2.5,2.5 0 0 1 1154,175.7969 L1154,254.5 A2.5,2.5 0 0 1 1151.5,257 L953.5,257 A2.5,2.5 0 0 1 951,254.5 L951,153.5 A2.5,2.5 0 0 1 953.5,151 " fill="none" style="stroke:#000000;stroke-width:1.5;"/><line style="stroke:#000000;stroke-width:1.5;" x1="951" x2="1027" y1="173.2969" y2="173.2969"/><text fill="#000000" font-family="sans-serif" font-size="14" font-weight="bold" lengthAdjust="spacing" textLength="63" x="955" y="165.9951">HotShot</text></g><!--cluster L1--><g id="cluster_L1"><path d="M104.5,1077 L205.5,1077 A3.75,3.75 0 0 1 208,1079.5 L215,1099.2969 L616.5,1099.2969 A2.5,2.5 0 0 1 619,1101.7969 L619,1215.5 A2.5,2.5 0 0 1 616.5,1218 L104.5,1218 A2.5,2.5 0 0 1 102,1215.5 L102,1079.5 A2.5,2.5 0 0 1 104.5,1077 " fill="none" style="stroke:#000000;stroke-width:1.5;"/><line style="stroke:#000000;stroke-width:1.5;" x1="102" x2="215" y1="1099.2969" y2="1099.2969"/><text fill="#000000" font-family="sans-serif" font-size="14" font-weight="bold" lengthAdjust="spacing" textLength="100" x="106" y="1091.9951">Ethereum L1</text></g><!--cluster L2--><g id="cluster_L2"><path d="M45.5,361 L179.5,361 A3.75,3.75 0 0 1 182,363.5 L189,383.2969 L828.5,383.2969 A2.5,2.5 0 0 1 831,385.7969 L831,1010.5 A2.5,2.5 0 0 1 828.5,1013 L45.5,1013 A2.5,2.5 0 0 1 43,1010.5 L43,363.5 A2.5,2.5 0 0 1 45.5,361 " fill="none" style="stroke:#000000;stroke-width:1.5;"/><line style="stroke:#000000;stroke-width:1.5;" x1="43" x2="189" y1="383.2969" y2="383.2969"/><text fill="#000000" font-family="sans-serif" font-size="14" font-weight="bold" lengthAdjust="spacing" textLength="133" x="47" y="375.9951">L2 (zkevm-node)</text></g><!--cluster HermezProver--><g id="cluster_HermezProver"><path d="M338.5,732 L458.5,732 A3.75,3.75 0 0 1 461,734.5 L468,754.2969 L683.5,754.2969 A2.5,2.5 0 0 1 686,756.7969 L686,861.5 A2.5,2.5 0 0 1 683.5,864 L338.5,864 A2.5,2.5 0 0 1 336,861.5 L336,734.5 A2.5,2.5 0 0 1 338.5,732 " fill="none" style="stroke:#000000;stroke-width:1.5;"/><line style="stroke:#000000;stroke-width:1.5;" x1="336" x2="468" y1="754.2969" y2="754.2969"/><text fill="#000000" font-family="sans-serif" font-size="14" font-weight="bold" lengthAdjust="spacing" textLength="119" x="340" y="746.9951">Hermez Prover</text></g><!--entity Original--><g id="elem_Original"><rect fill="#98FB98" height="36.2969" rx="2.5" ry="2.5" style="stroke:#181818;stroke-width:0.5;" width="151" x="226.5" y="205"/><text fill="#000000" font-family="sans-serif" font-size="14" lengthAdjust="spacing" textLength="131" x="236.5" y="227.9951">zkevm-node "as is"</text></g><!--entity Modified--><g id="elem_Modified"><rect fill="#FFB6C1" height="36.2969" rx="2.5" ry="2.5" style="stroke:#181818;stroke-width:0.5;" width="169" x="412.5" y="205"/><text fill="#000000" font-family="sans-serif" font-size="14" lengthAdjust="spacing" textLength="149" x="422.5" y="227.9951">zkevm-node modified</text></g><!--entity New--><g id="elem_New"><rect fill="#F1F1F1" height="36.2969" rx="2.5" ry="2.5" style="stroke:#181818;stroke-width:0.5;" width="49" x="142.5" y="205"/><text fill="#000000" font-family="sans-serif" font-size="14" lengthAdjust="spacing" textLength="29" x="152.5" y="227.9951">new</text></g><!--entity GossipExternal--><g id="elem_GossipExternal"><rect fill="#F1F1F1" height="36.2969" rx="2.5" ry="2.5" style="stroke:#181818;stroke-width:0.5;" width="68" x="1282" y="205"/><text fill="#000000" font-family="sans-serif" font-size="14" lengthAdjust="spacing" textLength="48" x="1292" y="227.9951">Gossip</text></g><!--entity QueryService--><g id="elem_QueryService"><rect fill="#F1F1F1" height="36.2969" rx="2.5" ry="2.5" style="stroke:#181818;stroke-width:0.5;" width="115" x="1023.5" y="417"/><text fill="#000000" font-family="sans-serif" font-size="14" lengthAdjust="spacing" textLength="95" x="1033.5" y="439.9951">Query Service</text></g><!--entity Submit--><g id="elem_Submit"><rect fill="#F1F1F1" height="36.2969" rx="2.5" ry="2.5" style="stroke:#181818;stroke-width:0.5;" width="93" x="895.5" y="417"/><text fill="#000000" font-family="sans-serif" font-size="14" lengthAdjust="spacing" textLength="73" x="905.5" y="439.9951">Submit API</text></g><!--entity GossipInternal--><g id="elem_GossipInternal"><rect fill="#F1F1F1" height="36.2969" rx="2.5" ry="2.5" style="stroke:#181818;stroke-width:0.5;" width="68" x="1070" y="205"/><text fill="#000000" font-family="sans-serif" font-size="14" lengthAdjust="spacing" textLength="48" x="1080" y="227.9951">Gossip</text></g><!--entity HotShotEvents--><g id="elem_HotShotEvents"><rect fill="#F1F1F1" height="36.2969" rx="2.5" ry="2.5" style="stroke:#181818;stroke-width:0.5;" width="67" x="967.5" y="205"/><text fill="#000000" font-family="sans-serif" font-size="14" lengthAdjust="spacing" textLength="47" x="977.5" y="227.9951">Events</text></g><!--entity Rollup--><g id="elem_Rollup"><rect fill="#FFB6C1" height="36.2969" rx="2.5" ry="2.5" style="stroke:#181818;stroke-width:0.5;" width="126" x="477" y="1148.5"/><text fill="#000000" font-family="sans-serif" font-size="14" lengthAdjust="spacing" textLength="106" x="487" y="1171.4951">Rollup Contract</text></g><g id="elem_GMN21"><path d="M118.5,1131 L118.5,1201.5313 A0,0 0 0 0 118.5,1201.5313 L441.5,1201.5313 A0,0 0 0 0 441.5,1201.5313 L441.5,1170.5 L476.83,1166.5 L441.5,1162.5 L441.5,1141 L431.5,1131 L118.5,1131 A0,0 0 0 0 118.5,1131 " fill="#FEFFDD" style="stroke:#181818;stroke-width:0.5;"/><path d="M431.5,1131 L431.5,1141 L441.5,1141 L431.5,1131 " fill="#FEFFDD" style="stroke:#181818;stroke-width:0.5;"/><text fill="#000000" font-family="sans-serif" font-size="13" lengthAdjust="spacing" textLength="302" x="124.5" y="1148.0669">Contract modified to store batch commitments</text><text fill="#000000" font-family="sans-serif" font-size="13" lengthAdjust="spacing" textLength="291" x="124.5" y="1163.1997">instead of batches. ForceBatches replaced by</text><text fill="#000000" font-family="sans-serif" font-size="13" lengthAdjust="spacing" textLength="287" x="124.5" y="1178.3325">Sequence, which validates a QC and stores a</text><text fill="#000000" font-family="sans-serif" font-size="13" lengthAdjust="spacing" textLength="281" x="124.5" y="1193.4653">batch commitment (associated with a GER).</text></g><!--entity JsonRPC--><g id="elem_JsonRPC"><rect fill="#FFB6C1" height="36.2969" rx="2.5" ry="2.5" style="stroke:#181818;stroke-width:0.5;" width="78" x="729" y="417"/><text fill="#000000" font-family="sans-serif" font-size="14" lengthAdjust="spacing" textLength="58" x="739" y="439.9951">JsonRPC</text></g><g id="elem_GMN26"><path d="M468.5,415 L468.5,455.2656 A0,0 0 0 0 468.5,455.2656 L693.5,455.2656 A0,0 0 0 0 693.5,455.2656 L693.5,439 L728.61,435 L693.5,431 L693.5,425 L683.5,415 L468.5,415 A0,0 0 0 0 468.5,415 " fill="#FEFFDD" style="stroke:#181818;stroke-width:0.5;"/><path d="M683.5,415 L683.5,425 L693.5,425 L683.5,415 " fill="#FEFFDD" style="stroke:#181818;stroke-width:0.5;"/><text fill="#000000" font-family="sans-serif" font-size="13" lengthAdjust="spacing" textLength="204" x="474.5" y="432.0669">Modified to forward transactions</text><text fill="#000000" font-family="sans-serif" font-size="13" lengthAdjust="spacing" textLength="171" x="474.5" y="447.1997">to the HotShot submit API.</text></g><!--entity L2DB--><g id="elem_L2DB"><path d="M675,600 C675,590 745,590 745,590 C745,590 815,590 815,600 L815,625.2969 C815,635.2969 745,635.2969 745,635.2969 C745,635.2969 675,635.2969 675,625.2969 L675,600 " fill="#98FB98" style="stroke:#181818;stroke-width:0.5;"/><path d="M675,600 C675,610 745,610 745,610 C745,610 815,610 815,600 " fill="none" style="stroke:#181818;stroke-width:0.5;"/><text fill="#000000" font-family="sans-serif" font-size="14" lengthAdjust="spacing" textLength="120" x="685" y="626.9951">L2 Blockchain DB</text></g><!--entity Etherman--><g id="elem_Etherman"><rect fill="#FFB6C1" height="36.2969" rx="2.5" ry="2.5" style="stroke:#181818;stroke-width:0.5;" width="87" x="571.5" y="951.5"/><text fill="#000000" font-family="sans-serif" font-size="14" lengthAdjust="spacing" textLength="67" x="581.5" y="974.4951">Etherman</text></g><g id="elem_GMN35"><path d="M204,942 L204,997.3984 A0,0 0 0 0 204,997.3984 L536,997.3984 A0,0 0 0 0 536,997.3984 L536,973.5 L571.2,969.5 L536,965.5 L536,952 L526,942 L204,942 A0,0 0 0 0 204,942 " fill="#FEFFDD" style="stroke:#181818;stroke-width:0.5;"/><path d="M526,942 L526,952 L536,952 L526,942 " fill="#FEFFDD" style="stroke:#181818;stroke-width:0.5;"/><text fill="#000000" font-family="sans-serif" font-size="13" lengthAdjust="spacing" textLength="279" x="210" y="959.0669">Etherman modified to fetch batch commits,</text><text fill="#000000" font-family="sans-serif" font-size="13" lengthAdjust="spacing" textLength="256" x="210" y="974.1997">not batches, from contract, and to fetch</text><text fill="#000000" font-family="sans-serif" font-size="13" lengthAdjust="spacing" textLength="311" x="210" y="989.3325">the full batches from the HotShot Query Service.</text></g><!--entity Aggregator--><g id="elem_Aggregator"><rect fill="#98FB98" height="36.2969" rx="2.5" ry="2.5" style="stroke:#181818;stroke-width:0.5;" width="97" x="336.5" y="417"/><text fill="#000000" font-family="sans-serif" font-size="14" lengthAdjust="spacing" textLength="77" x="346.5" y="439.9951">Aggregator</text></g><!--entity State--><g id="elem_State"><rect fill="#98FB98" height="52.5938" rx="2.5" ry="2.5" style="stroke:#181818;stroke-width:0.5;" width="64" x="545" y="586"/><text fill="#000000" font-family="sans-serif" font-size="14" lengthAdjust="spacing" textLength="36" x="555" y="608.9951">State</text><text fill="#000000" font-family="sans-serif" font-size="14" lengthAdjust="spacing" textLength="44" x="555" y="625.292">Library</text></g><!--entity Synchronizer--><g id="elem_Synchronizer"><rect fill="#98FB98" height="36.2969" rx="2.5" ry="2.5" style="stroke:#181818;stroke-width:0.5;" width="110" x="705" y="799"/><text fill="#000000" font-family="sans-serif" font-size="14" lengthAdjust="spacing" textLength="90" x="715" y="821.9951">Synchronizer</text></g><!--entity BatchWriter--><g id="elem_BatchWriter"><rect fill="#F1F1F1" height="36.2969" rx="2.5" ry="2.5" style="stroke:#181818;stroke-width:0.5;" width="104" x="173" y="417"/><text fill="#000000" font-family="sans-serif" font-size="14" lengthAdjust="spacing" textLength="84" x="183" y="439.9951">Batch Writer</text></g><g id="elem_GMN42"><path d="M59,592.5 L59,632.7656 A0,0 0 0 0 59,632.7656 L343,632.7656 A0,0 0 0 0 343,632.7656 L343,602.5 L333,592.5 L207.63,592.5 L222.61,453.47 L199.63,592.5 L59,592.5 A0,0 0 0 0 59,592.5 " fill="#FEFFDD" style="stroke:#181818;stroke-width:0.5;"/><path d="M333,592.5 L333,602.5 L343,602.5 L333,592.5 " fill="#FEFFDD" style="stroke:#181818;stroke-width:0.5;"/><text fill="#000000" font-family="sans-serif" font-size="13" lengthAdjust="spacing" textLength="262" x="65" y="609.5669">New component which scans blocks from</text><text fill="#000000" font-family="sans-serif" font-size="13" lengthAdjust="spacing" textLength="263" x="65" y="624.6997">HotShot and writes them to the contract.</text></g><!--entity Prover--><g id="elem_Prover"><rect fill="#98FB98" height="36.2969" rx="2.5" ry="2.5" style="stroke:#181818;stroke-width:0.5;" width="64" x="352" y="799"/><text fill="#000000" font-family="sans-serif" font-size="14" lengthAdjust="spacing" textLength="44" x="362" y="821.9951">Prover</text></g><!--entity Executor--><g id="elem_Executor"><rect fill="#98FB98" height="36.2969" rx="2.5" ry="2.5" style="stroke:#181818;stroke-width:0.5;" width="81" x="451.5" y="799"/><text fill="#000000" font-family="sans-serif" font-size="14" lengthAdjust="spacing" textLength="61" x="461.5" y="821.9951">Executor</text></g><!--entity Tree--><g id="elem_Tree"><path d="M568,796 C568,786 619,786 619,786 C619,786 670,786 670,796 L670,837.5938 C670,847.5938 619,847.5938 619,847.5938 C619,847.5938 568,847.5938 568,837.5938 L568,796 " fill="#98FB98" style="stroke:#181818;stroke-width:0.5;"/><path d="M568,796 C568,806 619,806 619,806 C619,806 670,806 670,796 " fill="none" style="stroke:#181818;stroke-width:0.5;"/><text fill="#000000" font-family="sans-serif" font-size="14" lengthAdjust="spacing" textLength="81" x="578" y="822.9951">L2 State DB</text><text fill="#000000" font-family="sans-serif" font-size="14" lengthAdjust="spacing" textLength="82" x="578" y="839.292">Merkle Tree</text></g><!--entity User--><g id="elem_User"><rect fill="#FFFFFF" height="36.2969" rx="2.5" ry="2.5" style="stroke:#181818;stroke-width:0.5;" width="52" x="742" y="205"/><text fill="#000000" font-family="sans-serif" font-size="14" lengthAdjust="spacing" textLength="32" x="752" y="227.9951">User</text></g><!--link New to Original--><!--link Original to Modified--><!--link User to JsonRPC--><g id="link_User_JsonRPC"><path d="M768,241.19 C768,278.56 768,367.33 768,410.12 " fill="none" id="User-to-JsonRPC" style="stroke:#181818;stroke-width:1.0;"/><polygon fill="#181818" points="768,415.06,772,406.06,768,410.06,764,406.06,768,415.06" style="stroke:#181818;stroke-width:1.0;"/><text fill="#000000" font-family="sans-serif" font-size="13" lengthAdjust="spacing" textLength="52" x="777" y="326.0669">EVM txn</text><text fill="#000000" font-family="sans-serif" font-size="13" lengthAdjust="spacing" textLength="68" x="769" y="341.1997">EVM query</text></g><!--link JsonRPC to Submit--><g id="link_JsonRPC_Submit"><path d="M807.48,435 C831.62,435 862.79,435 889.05,435 " fill="none" id="JsonRPC-to-Submit" style="stroke:#181818;stroke-width:1.0;"/><polygon fill="#181818" points="893.75,435,884.75,431,888.75,435,884.75,439,893.75,435" style="stroke:#181818;stroke-width:1.0;"/><text fill="#000000" font-family="sans-serif" font-size="13" lengthAdjust="spacing" textLength="52" x="825.25" y="428.0669">EVM txn</text></g><!--link GossipInternal to GossipExternal--><g id="link_GossipInternal_GossipExternal"><path d="M1144.8,223 C1188.28,223 1231.76,223 1275.24,223 " fill="none" id="GossipInternal-GossipExternal" style="stroke:#181818;stroke-width:1.0;"/><polygon fill="#181818" points="1139.88,223,1148.88,227,1144.88,223,1148.88,219,1139.88,223" style="stroke:#181818;stroke-width:1.0;"/><polygon fill="#181818" points="1280.14,223,1271.14,219,1275.14,223,1271.14,227,1280.14,223" style="stroke:#181818;stroke-width:1.0;"/></g><!--link QueryService to BatchWriter--><g id="link_QueryService_BatchWriter"><path d="M1070.51,416.66 C1058.01,396.85 1035.12,366.32 1006,353 C984.63,343.22 624.36,333.12 453.5,340.83 C393.54,343.54 374.2,329.42 319,353 C288.71,365.94 261.23,392.45 243.91,411.84 " fill="none" id="QueryService-to-BatchWriter" style="stroke:#181818;stroke-width:1.0;"/><polygon fill="#181818" points="240.73,415.47,249.6746,411.3476,244.0296,411.7133,243.6639,406.0683,240.73,415.47" style="stroke:#181818;stroke-width:1.0;"/><text fill="#000000" font-family="sans-serif" font-size="13" lengthAdjust="spacing" textLength="119" x="454.5" y="333.5669">batch_commit, QC</text></g><!--link BatchWriter to Rollup--><g id="link_BatchWriter_Rollup"><path d="M172.54,452.19 C107.75,475.82 6,526.48 6,611.5 C6,611.5 6,611.5 6,970.5 C6,1054.02 105.56,1002.5 187,1021 C306.71,1048.19 352.69,1007.62 459,1069 C489.56,1086.64 513.77,1120.37 527.5,1142.91 " fill="none" id="BatchWriter-to-Rollup" style="stroke:#181818;stroke-width:1.0;"/><polygon fill="#181818" points="529.99,1147.08,528.8278,1137.3,527.4343,1142.7825,521.9518,1141.389,529.99,1147.08" style="stroke:#181818;stroke-width:1.0;"/><text fill="#000000" font-family="sans-serif" font-size="13" lengthAdjust="spacing" textLength="193" x="7" y="821.5669">Sequence(batch_commit, QC)</text></g><!--link JsonRPC to State--><g id="link_JsonRPC_State"><path d="M754.18,453.24 C743.06,466.75 726.73,485.74 711,501 C680.13,530.94 642.07,561.82 614.41,583.3 " fill="none" id="JsonRPC-to-State" style="stroke:#181818;stroke-width:1.0;"/><polygon fill="#181818" points="610.56,586.27,620.1235,583.9164,614.5114,583.2062,615.2215,577.5941,610.56,586.27" style="stroke:#181818;stroke-width:1.0;"/><text fill="#000000" font-family="sans-serif" font-size="13" lengthAdjust="spacing" textLength="68" x="701" y="537.0669">EVM query</text></g><!--link State to L2DB--><g id="link_State_L2DB"><path d="M609.39,612.5 C626.24,612.5 647.62,612.5 668.38,612.5 " fill="none" id="State-to-L2DB" style="stroke:#181818;stroke-width:1.0;"/><polygon fill="#181818" points="673.29,612.5,664.29,608.5,668.29,612.5,664.29,616.5,673.29,612.5" style="stroke:#181818;stroke-width:1.0;"/><text fill="#000000" font-family="sans-serif" font-size="13" lengthAdjust="spacing" textLength="29" x="627.5" y="605.5669">read</text></g><!--link State to Tree--><g id="link_State_Tree"><path d="M582.32,639.15 C589.67,674.61 602.99,738.8 611.39,779.33 " fill="none" id="State-to-Tree" style="stroke:#181818;stroke-width:1.0;"/><polygon fill="#181818" points="612.39,784.13,614.4827,774.506,611.3765,779.2338,606.6487,776.1276,612.39,784.13" style="stroke:#181818;stroke-width:1.0;"/><text fill="#000000" font-family="sans-serif" font-size="13" lengthAdjust="spacing" textLength="58" x="599" y="697.0669">accounts</text></g><!--link State to Executor--><g id="link_State_Executor"><path d="M548.21,639.26 C539.96,647.97 531.68,658.24 526,669 C504.87,709.07 496.77,762.08 493.74,792.26 " fill="none" id="State-to-Executor" style="stroke:#181818;stroke-width:1.0;"/><polygon fill="#181818" points="493.28,797.2,498.0851,788.6028,493.7365,792.2209,490.1185,787.8724,493.28,797.2" style="stroke:#181818;stroke-width:1.0;"/><text fill="#000000" font-family="sans-serif" font-size="13" lengthAdjust="spacing" textLength="53" x="527" y="697.0669">call, etc.</text></g><!--link Aggregator to State--><g id="link_Aggregator_State"><path d="M402.1,453.38 C415.27,466.64 434.04,485.23 451,501 C481.09,528.97 516.33,559.71 541.87,581.64 " fill="none" id="Aggregator-to-State" style="stroke:#181818;stroke-width:1.0;"/><polygon fill="#181818" points="545.38,584.65,541.1664,575.748,541.5898,581.389,535.9488,581.8123,545.38,584.65" style="stroke:#181818;stroke-width:1.0;"/><text fill="#000000" font-family="sans-serif" font-size="13" lengthAdjust="spacing" textLength="32" x="514.5" y="522.0669">fetch</text><text fill="#000000" font-family="sans-serif" font-size="13" lengthAdjust="spacing" textLength="41" x="510" y="537.1997">prover</text><text fill="#000000" font-family="sans-serif" font-size="13" lengthAdjust="spacing" textLength="32" x="514.5" y="552.3325">input</text></g><!--link Aggregator to Etherman--><g id="link_Aggregator_Etherman"><path d="M384.79,453.47 C383.97,489.07 379.98,572.27 361,639 C356.97,653.15 351.59,655.02 347,669 C318.83,754.85 282.76,798.99 336,872 C395.96,954.22 458.77,906.13 554,942 C559.4,944.03 565.01,946.28 570.55,948.58 " fill="none" id="Aggregator-to-Etherman" style="stroke:#181818;stroke-width:1.0;"/><polygon fill="#181818" points="575.12,950.51,568.3775,943.3309,570.5118,948.5697,565.2731,950.704,575.12,950.51" style="stroke:#181818;stroke-width:1.0;"/><text fill="#000000" font-family="sans-serif" font-size="13" lengthAdjust="spacing" textLength="33" x="348" y="697.0669">proof</text></g><!--link Aggregator to Prover--><g id="link_Aggregator_Prover"><path d="M385.85,453.4 C386.55,468.19 387.49,489.98 388,509 C390.46,600.97 392.76,624.04 390,716 C389.22,742.08 387.29,771.94 385.83,792.19 " fill="none" id="Aggregator-to-Prover" style="stroke:#181818;stroke-width:1.0;"/><polygon fill="#181818" points="385.47,797.16,390.1028,788.4688,385.8273,792.1728,382.1233,787.8972,385.47,797.16" style="stroke:#181818;stroke-width:1.0;"/><text fill="#000000" font-family="sans-serif" font-size="13" lengthAdjust="spacing" textLength="58" x="392" y="609.5669">generate</text><text fill="#000000" font-family="sans-serif" font-size="13" lengthAdjust="spacing" textLength="33" x="404.5" y="624.6997">proof</text></g><!--link Etherman to Rollup--><g id="link_Etherman_Rollup"><path d="M596.36,987.83 C584.71,998.17 569.09,1011.17 554,1021 C547.34,1025.34 542.18,1022.24 538,1029 C516.57,1063.68 524.84,1113.37 532.57,1142.25 " fill="none" id="Etherman-to-Rollup" style="stroke:#181818;stroke-width:1.0;"/><polygon fill="#181818" points="533.9,1146.97,535.3348,1137.2262,532.5566,1142.1538,527.629,1139.3756,533.9,1146.97" style="stroke:#181818;stroke-width:1.0;"/><text fill="#000000" font-family="sans-serif" font-size="13" lengthAdjust="spacing" textLength="33" x="539" y="1049.5669">proof</text></g><!--reverse link Etherman to Rollup--><g id="link_Etherman_Rollup"><path d="M606.03,993.81 C590.78,1033.46 560.14,1113.14 546.64,1148.23 " fill="none" id="Etherman-backto-Rollup" style="stroke:#181818;stroke-width:1.0;"/><polygon fill="#181818" points="607.8,989.22,600.8501,996.1985,606.0147,993.8904,608.3227,999.055,607.8,989.22" style="stroke:#181818;stroke-width:1.0;"/><text fill="#000000" font-family="sans-serif" font-size="13" lengthAdjust="spacing" textLength="89" x="594" y="1042.0669">batch commit</text><text fill="#000000" font-family="sans-serif" font-size="13" lengthAdjust="spacing" textLength="95" x="591" y="1057.1997">global exit root</text></g><!--reverse link Etherman to QueryService--><g id="link_Etherman_QueryService"><path d="M665,961.65 C704.6,954.35 759.89,939.85 801,912 C976.81,792.88 1058,523.55 1076.69,453.11 " fill="none" id="Etherman-backto-QueryService" style="stroke:#181818;stroke-width:1.0;"/><polygon fill="#181818" points="660.28,962.49,669.8468,964.8302,665.2007,961.6031,668.4278,956.9571,660.28,962.49" style="stroke:#181818;stroke-width:1.0;"/><text fill="#000000" font-family="sans-serif" font-size="13" lengthAdjust="spacing" textLength="36" x="995" y="697.0669">batch</text></g><!--reverse link Synchronizer to Etherman--><g id="link_Synchronizer_Etherman"><path d="M738.9,839.91 C709.77,870.14 657.86,924.01 631.44,951.44 " fill="none" id="Synchronizer-backto-Etherman" style="stroke:#181818;stroke-width:1.0;"/><polygon fill="#181818" points="742.32,836.35,733.1934,840.0521,738.8493,839.9492,738.9522,845.6051,742.32,836.35" style="stroke:#181818;stroke-width:1.0;"/><text fill="#000000" font-family="sans-serif" font-size="13" lengthAdjust="spacing" textLength="36" x="726.5" y="893.0669">batch</text><text fill="#000000" font-family="sans-serif" font-size="13" lengthAdjust="spacing" textLength="95" x="697" y="908.1997">global exit root</text></g><!--reverse link State to Synchronizer--><g id="link_State_Synchronizer"><path d="M615.1,632.29 C631.94,641.78 651.23,654.39 666,669 C706.5,709.04 738.21,769.55 752.2,798.87 " fill="none" id="State-backto-Synchronizer" style="stroke:#181818;stroke-width:1.0;"/><polygon fill="#181818" points="610.82,629.92,616.7645,637.7726,615.1968,632.3373,620.6321,630.7696,610.82,629.92" style="stroke:#181818;stroke-width:1.0;"/><text fill="#000000" font-family="sans-serif" font-size="13" lengthAdjust="spacing" textLength="36" x="732.5" y="682.0669">batch</text><text fill="#000000" font-family="sans-serif" font-size="13" lengthAdjust="spacing" textLength="95" x="703" y="697.1997">global exit root</text><text fill="#000000" font-family="sans-serif" font-size="13" lengthAdjust="spacing" textLength="33" x="734" y="712.3325">state</text></g><!--reverse link App to Submit--><g id="link_App_Submit"><path d="M926.1849,289.5791 C926.2188,289.8887 926.2527,290.1987 926.2867,290.5093 C926.3548,291.1304 926.423,291.7537 926.4915,292.3789 C926.6284,293.6293 926.7663,294.8876 926.9049,296.1531 C927.1821,298.6839 927.4623,301.243 927.745,303.8238 C932.2675,345.115 937.395,391.925 940.1,416.61 " fill="none" id="App-backto-Submit" style="stroke:#181818;stroke-width:1.0;"/><polygon fill="#181818" points="926.1849,289.5791,923.1885,298.9611,926.7292,294.5494,931.1409,298.0902,926.1849,289.5791" style="stroke:#181818;stroke-width:1.0;"/><text fill="#000000" font-family="sans-serif" font-size="13" lengthAdjust="spacing" textLength="126" x="932" y="333.5669">wrap in HotShot txn</text></g><!--link HotShotEvents to QueryService--><g id="link_HotShotEvents_QueryService"><path d="M1008.94,241.2 C1017.76,258.87 1033.37,286.36 1053,305 C1058.2,309.94 1063.05,307.02 1067,313 C1086.33,342.29 1086.48,384.44 1084.2,410.48 " fill="none" id="HotShotEvents-to-QueryService" style="stroke:#181818;stroke-width:1.0;"/><polygon fill="#181818" points="1083.73,415.23,1088.6106,406.6755,1084.2303,410.2551,1080.6507,405.8749,1083.73,415.23" style="stroke:#181818;stroke-width:1.0;"/></g><!--SRC=[VLPDJoCv4BtxLvJW04Xf93X628b0bfbLs6N8xCvXWbPEToMnqh5xR8TyZFZlMxRR7NVpSKdQvLTLzdEziirIo8fhle9ShIebKTgntPK86dFBvRn4ncOqZJ32ESe2VZCuGE5elyINLIPLWN343GXpT0Jq_xSMSo5v2SUFlCHxZIW_z5kfGim45jxneHx0yKZC5_PHo6NRKUB60__23NjbZFuW-xaGHO7oMMVNJMRMBA4r7UCpTeZvZq4DnpyMmYAhUBxaSzhC5sN72sKdybJP1SqBQOYF7CsPJrzF3xSMjKlIeULU6ICgZmoV4UZMtEIumvpGcfTYJpiUuwyrKWPzvACrgFro-Ey3y2g4sozlgie3MWc_hL7lA8H-4JbweBVKXYvwl9wkX8MRnwyU6eOUr6JzlfMPqWLg8UTnjyqY3aiuU4HCj7_EnrTPy_4EUFX2VwP5ixVKs5SMVrzRR0xTEU5w1QCBxpkww9xAaohBTGMtof6UMu-gRQroayeYb3Ype6OrmEUCZat9WbLWhD88KsxpXSj5HAwQnRgYGLwuC1w0vXp-K3h7GHYHoggIvnHeklCEiGPwi5a82lX2jL5mIqWEtsw1am1zFXfxV3Sjd79ZL2x8fO2Di0lokny-dPqJsgdNxOm-Jr9M1beKn5_DMXWHTuboYUK3pQDBE3seDwY1R6sg_pHAFZtUVa9hZV2xU4Zed2czuPe-DPU6k1PA1YvfZWwuAJFJb71dRqGNdt936xgy6oIxW9y-32rrKAfycI-ua70t8EDpghOlg5UuXqUjNfmINGrwIp2y4LvjRhMvT7wunNnD9zP5DAlyJgQtg_Jh75iwnh14pnBgPHaSlEMP1HMSl7EMb-bPNdxKXRrYLbn-SamHuZCs-BJ-P-XAC2r4q_DeYXEhlWSphTmL4_JJyuKSVSFfqj7ErcKPFO93Uk2j3jSvyyEMRkPpZNF-Xl6q-JbQ9t8affhhNMY0dkaF7COxcI-qajIaFmxg1Gq_DDqXeMgy8OmZfrDbBMsAM6rFWhlCac11-YOd0S3KrMfWmoERJaoRtxW0nf6qYkg83BVu8VdwAouhr4RI7LXBhm_kNh5REP7kuvVZbvq4PBmoh-FTS58f8xmOVHwFcgejTJZgC5Eqj1FmhUnjXD4bOx4VP35WavonzeK0LuJft9ailSjSZ8I_VgYO_qBfzQXBicJMWKC3xpUzzRJhS9QipotG5KDON-24XVB8hdrBwLFJvaMqaT49iWyypzNQzVt3HDH-7t9UbZsWOZzdBAdG99jNmaHMlfrC93tArhOBZVBh0y7Kh3iTMb4Vw9c6sfTuW3MgpH8oEbDNMJEJAdb23q0rfKF1BVLQSh4jb_HOQaVMKijLbYMhze1tGWR673Pr_X0_SIynAcjs4hll-Vbrq-l86WemQsmNh7xlPEkAhFHuwPDsUEMAD-h9LMBhiT6efVME-Xy0]--></g></svg>