<?xml version="1.0" encoding="us-ascii" standalone="no"?><svg xmlns="http://www.w3.org/2000/svg" xmlns:xlink="http://www.w3.org/1999/xlink" contentStyleType="text/css" height="1200px" preserveAspectRatio="none" style="width:1926px;height:1200px;background:#FFFFFF;" version="1.1" viewBox="0 0 1926 1200" width="1926px" zoomAndPan="magnify"><defs/><g><!--cluster Legend--><g id="cluster_Legend"><rect fill="none" height="87" rx="2.5" ry="2.5" style="stroke:#181818;stroke-width:1.0;" width="472" x="7" y="15.5"/><path d="M76,15.5 L76,24.7969 L66,34.7969 L7,34.7969 " fill="none" style="stroke:#181818;stroke-width:1.0;"/><text fill="#000000" font-family="sans-serif" font-size="14" font-weight="bold" lengthAdjust="spacing" textLength="59" x="10" y="29.4951">Legend</text></g><!--cluster HotShotExternal--><g id="cluster_HotShotExternal"><path d="M1707.5,349 L1844.5,349 A3.75,3.75 0 0 1 1847,351.5 L1854,387.5938 L1854.5,387.5938 A2.5,2.5 0 0 1 1857,390.0938 L1857,449.5 A2.5,2.5 0 0 1 1854.5,452 L1707.5,452 A2.5,2.5 0 0 1 1705,449.5 L1705,351.5 A2.5,2.5 0 0 1 1707.5,349 " fill="none" style="stroke:#000000;stroke-width:1.5;"/><line style="stroke:#000000;stroke-width:1.5;" x1="1705" x2="1854" y1="387.5938" y2="387.5938"/><text fill="#000000" font-family="sans-serif" font-size="14" font-weight="bold" lengthAdjust="spacing" textLength="63" x="1745.5" y="363.9951">HotShot</text><text fill="#000000" font-family="sans-serif" font-size="14" font-weight="bold" lengthAdjust="spacing" textLength="136" x="1709" y="380.292">(other instances)</text></g><!--cluster Decentralized Sequencer--><g id="cluster_Decentralized Sequencer"><path d="M1302.5,529 L1503.5,529 A3.75,3.75 0 0 1 1506,531.5 L1513,551.2969 L1916.5,551.2969 A2.5,2.5 0 0 1 1919,553.7969 L1919,1050.5 A2.5,2.5 0 0 1 1916.5,1053 L1302.5,1053 A2.5,2.5 0 0 1 1300,1050.5 L1300,531.5 A2.5,2.5 0 0 1 1302.5,529 " fill="none" style="stroke:#000000;stroke-width:1.5;"/><line style="stroke:#000000;stroke-width:1.5;" x1="1300" x2="1513" y1="551.2969" y2="551.2969"/><text fill="#000000" font-family="sans-serif" font-size="14" font-weight="bold" lengthAdjust="spacing" textLength="200" x="1304" y="543.9951">Decentralized Sequencer</text></g><!--cluster zkApp--><g id="cluster_zkApp"><path d="M1326.5,572 L1412.5,572 A3.75,3.75 0 0 1 1415,574.5 L1422,594.2969 L1892.5,594.2969 A2.5,2.5 0 0 1 1895,596.7969 L1895,1026.5 A2.5,2.5 0 0 1 1892.5,1029 L1326.5,1029 A2.5,2.5 0 0 1 1324,1026.5 L1324,574.5 A2.5,2.5 0 0 1 1326.5,572 " fill="none" style="stroke:#000000;stroke-width:1.5;"/><line style="stroke:#000000;stroke-width:1.5;" x1="1324" x2="1422" y1="594.2969" y2="594.2969"/><text fill="#000000" font-family="sans-serif" font-size="14" font-weight="bold" lengthAdjust="spacing" textLength="85" x="1328" y="586.9951">zkEVM app</text></g><!--cluster App--><g id="cluster_App"><path d="M1590.5,623 L1796.5,623 A3.75,3.75 0 0 1 1799,625.5 L1806,645.2969 L1860.5,645.2969 A2.5,2.5 0 0 1 1863,647.7969 L1863,790.5 A2.5,2.5 0 0 1 1860.5,793 L1590.5,793 A2.5,2.5 0 0 1 1588,790.5 L1588,625.5 A2.5,2.5 0 0 1 1590.5,623 " fill="none" style="stroke:#000000;stroke-width:1.5;"/><line style="stroke:#000000;stroke-width:1.5;" x1="1588" x2="1806" y1="645.2969" y2="645.2969"/><text fill="#000000" font-family="sans-serif" font-size="14" font-weight="bold" lengthAdjust="spacing" textLength="205" x="1592" y="637.9951">Txn-ordering HotShot app</text></g><!--cluster HotShot--><g id="cluster_HotShot"><path d="M1630.5,674 L1694.5,674 A3.75,3.75 0 0 1 1697,676.5 L1704,696.2969 L1828.5,696.2969 A2.5,2.5 0 0 1 1831,698.7969 L1831,758.5 A2.5,2.5 0 0 1 1828.5,761 L1630.5,761 A2.5,2.5 0 0 1 1628,758.5 L1628,676.5 A2.5,2.5 0 0 1 1630.5,674 " fill="none" style="stroke:#000000;stroke-width:1.5;"/><line style="stroke:#000000;stroke-width:1.5;" x1="1628" x2="1704" y1="696.2969" y2="696.2969"/><text fill="#000000" font-family="sans-serif" font-size="14" font-weight="bold" lengthAdjust="spacing" textLength="63" x="1632" y="688.9951">HotShot</text></g><!--cluster Adaptor--><g id="cluster_Adaptor"><path d="M1093.5,657.5 L1181.5,657.5 A3.75,3.75 0 0 1 1184,660 L1191,679.7969 L1265.5,679.7969 A2.5,2.5 0 0 1 1268,682.2969 L1268,775 A2.5,2.5 0 0 1 1265.5,777.5 L1093.5,777.5 A2.5,2.5 0 0 1 1091,775 L1091,660 A2.5,2.5 0 0 1 1093.5,657.5 " fill="none" style="stroke:#000000;stroke-width:1.5;"/><line style="stroke:#000000;stroke-width:1.5;" x1="1091" x2="1191" y1="679.7969" y2="679.7969"/><text fill="#000000" font-family="sans-serif" font-size="14" font-weight="bold" lengthAdjust="spacing" textLength="87" x="1095" y="672.4951">L2 Adaptor</text></g><!--cluster L1--><g id="cluster_L1"><path d="M589.5,1102 L690.5,1102 A3.75,3.75 0 0 1 693,1104.5 L700,1124.2969 L1217.5,1124.2969 A2.5,2.5 0 0 1 1220,1126.7969 L1220,1190.5 A2.5,2.5 0 0 1 1217.5,1193 L589.5,1193 A2.5,2.5 0 0 1 587,1190.5 L587,1104.5 A2.5,2.5 0 0 1 589.5,1102 " fill="none" style="stroke:#000000;stroke-width:1.5;"/><line style="stroke:#000000;stroke-width:1.5;" x1="587" x2="700" y1="1124.2969" y2="1124.2969"/><text fill="#000000" font-family="sans-serif" font-size="14" font-weight="bold" lengthAdjust="spacing" textLength="100" x="591" y="1116.9951">Ethereum L1</text></g><!--cluster L2--><g id="cluster_L2"><path d="M505.5,6 L639.5,6 A3.75,3.75 0 0 1 642,8.5 L649,28.2969 L1056.5,28.2969 A2.5,2.5 0 0 1 1059,30.7969 L1059,783.5 A2.5,2.5 0 0 1 1056.5,786 L505.5,786 A2.5,2.5 0 0 1 503,783.5 L503,8.5 A2.5,2.5 0 0 1 505.5,6 " fill="none" style="stroke:#000000;stroke-width:1.5;"/><line style="stroke:#000000;stroke-width:1.5;" x1="503" x2="649" y1="28.2969" y2="28.2969"/><text fill="#000000" font-family="sans-serif" font-size="14" font-weight="bold" lengthAdjust="spacing" textLength="133" x="507" y="20.9951">L2 (zkevm-node)</text></g><!--cluster zkEVMProver--><g id="cluster_zkEVMProver"><path d="M687.5,352 L865.5,352 A3.75,3.75 0 0 1 868,354.5 L875,374.2969 L1032.5,374.2969 A2.5,2.5 0 0 1 1035,376.7969 L1035,462.5 A2.5,2.5 0 0 1 1032.5,465 L687.5,465 A2.5,2.5 0 0 1 685,462.5 L685,354.5 A2.5,2.5 0 0 1 687.5,352 " fill="none" style="stroke:#000000;stroke-width:1.5;"/><line style="stroke:#000000;stroke-width:1.5;" x1="685" x2="875" y1="374.2969" y2="374.2969"/><text fill="#000000" font-family="sans-serif" font-size="14" font-weight="bold" lengthAdjust="spacing" textLength="177" x="689" y="366.9951">Polygon zkEVM Prover</text></g><!--entity Original--><g id="elem_Original"><rect fill="#98FB98" height="36.2969" rx="2.5" ry="2.5" style="stroke:#181818;stroke-width:0.5;" width="151" x="107.5" y="50.5"/><text fill="#000000" font-family="sans-serif" font-size="14" lengthAdjust="spacing" textLength="131" x="117.5" y="73.4951">zkevm-node "as is"</text></g><!--entity Modified--><g id="elem_Modified"><rect fill="#FFB6C1" height="36.2969" rx="2.5" ry="2.5" style="stroke:#181818;stroke-width:0.5;" width="169" x="293.5" y="50.5"/><text fill="#000000" font-family="sans-serif" font-size="14" lengthAdjust="spacing" textLength="149" x="303.5" y="73.4951">zkevm-node modified</text></g><!--entity New--><g id="elem_New"><rect fill="#F1F1F1" height="36.2969" rx="2.5" ry="2.5" style="stroke:#181818;stroke-width:0.5;" width="49" x="23.5" y="50.5"/><text fill="#000000" font-family="sans-serif" font-size="14" lengthAdjust="spacing" textLength="29" x="33.5" y="73.4951">new</text></g><!--entity GossipExternal--><g id="elem_GossipExternal"><rect fill="#F1F1F1" height="36.2969" rx="2.5" ry="2.5" style="stroke:#181818;stroke-width:0.5;" width="68" x="1747" y="400"/><text fill="#000000" font-family="sans-serif" font-size="14" lengthAdjust="spacing" textLength="48" x="1757" y="422.9951">Gossip</text></g><!--entity QueryService--><g id="elem_QueryService"><rect fill="#F1F1F1" height="36.2969" rx="2.5" ry="2.5" style="stroke:#181818;stroke-width:0.5;" width="115" x="1366.5" y="864"/><text fill="#000000" font-family="sans-serif" font-size="14" lengthAdjust="spacing" textLength="95" x="1376.5" y="886.9951">Query Service</text></g><!--entity Submit--><g id="elem_Submit"><rect fill="#F1F1F1" height="36.2969" rx="2.5" ry="2.5" style="stroke:#181818;stroke-width:0.5;" width="93" x="1340.5" y="709"/><text fill="#000000" font-family="sans-serif" font-size="14" lengthAdjust="spacing" textLength="73" x="1350.5" y="731.9951">Submit API</text></g><!--entity HotShotCommitment--><g id="elem_HotShotCommitment"><rect fill="#F1F1F1" height="36.2969" rx="2.5" ry="2.5" style="stroke:#181818;stroke-width:0.5;" width="167" x="1340.5" y="977"/><text fill="#000000" font-family="sans-serif" font-size="14" lengthAdjust="spacing" textLength="147" x="1350.5" y="999.9951">HotShot commitment</text></g><!--entity GossipInternal--><g id="elem_GossipInternal"><rect fill="#F1F1F1" height="36.2969" rx="2.5" ry="2.5" style="stroke:#181818;stroke-width:0.5;" width="68" x="1747" y="709"/><text fill="#000000" font-family="sans-serif" font-size="14" lengthAdjust="spacing" textLength="48" x="1757" y="731.9951">Gossip</text></g><!--entity HotShotEvents--><g id="elem_HotShotEvents"><rect fill="#F1F1F1" height="36.2969" rx="2.5" ry="2.5" style="stroke:#181818;stroke-width:0.5;" width="67" x="1644.5" y="709"/><text fill="#000000" font-family="sans-serif" font-size="14" lengthAdjust="spacing" textLength="47" x="1654.5" y="731.9951">Events</text></g><!--entity AdaptorSubmit--><g id="elem_AdaptorSubmit"><rect fill="#F1F1F1" height="52.5938" rx="2.5" ry="2.5" style="stroke:#181818;stroke-width:0.5;" width="109" x="1134.5" y="700.5"/><text fill="#000000" font-family="sans-serif" font-size="14" lengthAdjust="spacing" textLength="67" x="1144.5" y="723.4951">JSON-RPC</text><text fill="#000000" font-family="sans-serif" font-size="14" lengthAdjust="spacing" textLength="89" x="1144.5" y="739.792">(submit only)</text></g><!--entity Rollup--><g id="elem_Rollup"><rect fill="#FFB6C1" height="36.2969" rx="2.5" ry="2.5" style="stroke:#181818;stroke-width:0.5;" width="126" x="810" y="1139"/><text fill="#000000" font-family="sans-serif" font-size="14" lengthAdjust="spacing" textLength="106" x="820" y="1161.9951">Rollup Contract</text></g><g id="elem_GMN24"><path d="M603,1137 L603,1177.2656 A0,0 0 0 0 603,1177.2656 L775,1177.2656 A0,0 0 0 0 775,1177.2656 L775,1161 L809.62,1157 L775,1153 L775,1147 L765,1137 L603,1137 A0,0 0 0 0 603,1137 " fill="#FEFFDD" style="stroke:#181818;stroke-width:0.5;"/><path d="M765,1137 L765,1147 L775,1147 L765,1137 " fill="#FEFFDD" style="stroke:#181818;stroke-width:0.5;"/><text fill="#000000" font-family="sans-serif" font-size="13" lengthAdjust="spacing" textLength="151" x="609" y="1154.0669">Contract modified to no</text><text fill="#000000" font-family="sans-serif" font-size="13" lengthAdjust="spacing" textLength="136" x="609" y="1169.1997">longer store batches.</text></g><!--entity HotShotContract--><g id="elem_HotShotContract"><rect fill="#F1F1F1" height="36.2969" rx="2.5" ry="2.5" style="stroke:#181818;stroke-width:0.5;" width="139" x="1064.5" y="1139"/><text fill="#000000" font-family="sans-serif" font-size="14" lengthAdjust="spacing" textLength="119" x="1074.5" y="1161.9951">HotShot Contract</text></g><!--entity JsonRPC--><g id="elem_JsonRPC"><rect fill="#98FB98" height="36.2969" rx="2.5" ry="2.5" style="stroke:#181818;stroke-width:0.5;" width="78" x="965" y="50.5"/><text fill="#000000" font-family="sans-serif" font-size="14" lengthAdjust="spacing" textLength="58" x="975" y="73.4951">JsonRPC</text></g><g id="elem_GMN30"><path d="M738,41 L738,96.3984 A0,0 0 0 0 738,96.3984 L930,96.3984 A0,0 0 0 0 930,96.3984 L930,72.5 L964.55,68.5 L930,64.5 L930,51 L920,41 L738,41 A0,0 0 0 0 738,41 " fill="#FEFFDD" style="stroke:#181818;stroke-width:0.5;"/><path d="M920,41 L920,51 L930,51 L920,41 " fill="#FEFFDD" style="stroke:#181818;stroke-width:0.5;"/><text fill="#000000" font-family="sans-serif" font-size="13" lengthAdjust="spacing" textLength="137" x="744" y="58.0669">Configured to forward</text><text fill="#000000" font-family="sans-serif" font-size="13" lengthAdjust="spacing" textLength="171" x="744" y="73.1997">transactions to the Submit</text><text fill="#000000" font-family="sans-serif" font-size="13" lengthAdjust="spacing" textLength="138" x="744" y="88.3325">API of the L2 adaptor.</text></g><!--entity L2DB--><g id="elem_L2DB"><path d="M903,217 C903,207 973,207 973,207 C973,207 1043,207 1043,217 L1043,242.2969 C1043,252.2969 973,252.2969 973,252.2969 C973,252.2969 903,252.2969 903,242.2969 L903,217 " fill="#98FB98" style="stroke:#181818;stroke-width:0.5;"/><path d="M903,217 C903,227 973,227 973,227 C973,227 1043,227 1043,217 " fill="none" style="stroke:#181818;stroke-width:0.5;"/><text fill="#000000" font-family="sans-serif" font-size="14" lengthAdjust="spacing" textLength="120" x="913" y="243.9951">L2 Blockchain DB</text></g><!--entity Etherman--><g id="elem_Etherman"><rect fill="#FFB6C1" height="36.2969" rx="2.5" ry="2.5" style="stroke:#181818;stroke-width:0.5;" width="87" x="829.5" y="709"/><text fill="#000000" font-family="sans-serif" font-size="14" lengthAdjust="spacing" textLength="67" x="839.5" y="731.9951">Etherman</text></g><g id="elem_GMN39"><path d="M589.5,684 L589.5,769.6641 A0,0 0 0 0 589.5,769.6641 L794.5,769.6641 A0,0 0 0 0 794.5,769.6641 L794.5,731 L829.05,727 L794.5,723 L794.5,694 L784.5,684 L589.5,684 A0,0 0 0 0 589.5,684 " fill="#FEFFDD" style="stroke:#181818;stroke-width:0.5;"/><path d="M784.5,684 L784.5,694 L794.5,694 L784.5,684 " fill="#FEFFDD" style="stroke:#181818;stroke-width:0.5;"/><text fill="#000000" font-family="sans-serif" font-size="13" lengthAdjust="spacing" textLength="175" x="595.5" y="701.0669">Etherman modified to fetch</text><text fill="#000000" font-family="sans-serif" font-size="13" lengthAdjust="spacing" textLength="184" x="595.5" y="716.1997">batch commits, not batches,</text><text fill="#000000" font-family="sans-serif" font-size="13" lengthAdjust="spacing" textLength="172" x="595.5" y="731.3325">from contract, and to fetch</text><text fill="#000000" font-family="sans-serif" font-size="13" lengthAdjust="spacing" textLength="157" x="595.5" y="746.4653">the full batches from the</text><text fill="#000000" font-family="sans-serif" font-size="13" lengthAdjust="spacing" textLength="150" x="595.5" y="761.5981">HotShot Query Service.</text></g><!--entity Aggregator--><g id="elem_Aggregator"><rect fill="#98FB98" height="36.2969" rx="2.5" ry="2.5" style="stroke:#181818;stroke-width:0.5;" width="97" x="605.5" y="50.5"/><text fill="#000000" font-family="sans-serif" font-size="14" lengthAdjust="spacing" textLength="77" x="615.5" y="73.4951">Aggregator</text></g><!--entity State--><g id="elem_State"><rect fill="#98FB98" height="52.5938" rx="2.5" ry="2.5" style="stroke:#181818;stroke-width:0.5;" width="64" x="773" y="203"/><text fill="#000000" font-family="sans-serif" font-size="14" lengthAdjust="spacing" textLength="36" x="783" y="225.9951">State</text><text fill="#000000" font-family="sans-serif" font-size="14" lengthAdjust="spacing" textLength="44" x="783" y="242.292">Library</text></g><!--entity Synchronizer--><g id="elem_Synchronizer"><rect fill="#98FB98" height="36.2969" rx="2.5" ry="2.5" style="stroke:#181818;stroke-width:0.5;" width="110" x="556" y="400"/><text fill="#000000" font-family="sans-serif" font-size="14" lengthAdjust="spacing" textLength="90" x="566" y="422.9951">Synchronizer</text></g><!--entity Prover--><g id="elem_Prover"><rect fill="#98FB98" height="36.2969" rx="2.5" ry="2.5" style="stroke:#181818;stroke-width:0.5;" width="64" x="701" y="400"/><text fill="#000000" font-family="sans-serif" font-size="14" lengthAdjust="spacing" textLength="44" x="711" y="422.9951">Prover</text></g><!--entity Executor--><g id="elem_Executor"><rect fill="#98FB98" height="36.2969" rx="2.5" ry="2.5" style="stroke:#181818;stroke-width:0.5;" width="81" x="937.5" y="400"/><text fill="#000000" font-family="sans-serif" font-size="14" lengthAdjust="spacing" textLength="61" x="947.5" y="422.9951">Executor</text></g><!--entity Tree--><g id="elem_Tree"><path d="M800,397 C800,387 851,387 851,387 C851,387 902,387 902,397 L902,438.5938 C902,448.5938 851,448.5938 851,448.5938 C851,448.5938 800,448.5938 800,438.5938 L800,397 " fill="#98FB98" style="stroke:#181818;stroke-width:0.5;"/><path d="M800,397 C800,407 851,407 851,407 C851,407 902,407 902,397 " fill="none" style="stroke:#181818;stroke-width:0.5;"/><text fill="#000000" font-family="sans-serif" font-size="14" lengthAdjust="spacing" textLength="81" x="810" y="423.9951">L2 State DB</text><text fill="#000000" font-family="sans-serif" font-size="14" lengthAdjust="spacing" textLength="82" x="810" y="440.292">Merkle Tree</text></g><!--entity User--><g id="elem_User"><rect fill="#FFFFFF" height="36.2969" rx="2.5" ry="2.5" style="stroke:#181818;stroke-width:0.5;" width="52" x="1148" y="50.5"/><text fill="#000000" font-family="sans-serif" font-size="14" lengthAdjust="spacing" textLength="32" x="1158" y="73.4951">User</text></g><!--link New to Original--><!--link Original to Modified--><!--reverse link JsonRPC to User--><g id="link_JsonRPC_User"><path d="M1049.58,68.5 C1080.98,68.5 1121.61,68.5 1147.74,68.5 " fill="none" id="JsonRPC-backto-User" style="stroke:#181818;stroke-width:1.0;"/><polygon fill="#181818" points="1044.94,68.5,1053.94,72.5,1049.94,68.5,1053.94,64.5,1044.94,68.5" style="stroke:#181818;stroke-width:1.0;"/><text fill="#000000" font-family="sans-serif" font-size="13" lengthAdjust="spacing" textLength="52" x="1069.5" y="46.5669">EVM txn</text><text fill="#000000" font-family="sans-serif" font-size="13" lengthAdjust="spacing" textLength="68" x="1061.5" y="61.6997">EVM query</text></g><!--link JsonRPC to AdaptorSubmit--><g id="link_JsonRPC_AdaptorSubmit"><path d="M1012.32,86.88 C1024.12,112.04 1045.87,160.29 1060,203 C1120.26,385.15 1166.78,611.24 1182.89,693.86 " fill="none" id="JsonRPC-to-AdaptorSubmit" style="stroke:#181818;stroke-width:1.0;"/><polygon fill="#181818" points="1183.79,698.53,1185.9956,688.9313,1182.8341,693.6222,1178.1432,690.4607,1183.79,698.53" style="stroke:#181818;stroke-width:1.0;"/><text fill="#000000" font-family="sans-serif" font-size="13" lengthAdjust="spacing" textLength="52" x="1098" y="314.0669">EVM txn</text></g><!--link AdaptorSubmit to Submit--><g id="link_AdaptorSubmit_Submit"><path d="M1243.89,727 C1271.98,727 1306.03,727 1333.86,727 " fill="none" id="AdaptorSubmit-to-Submit" style="stroke:#181818;stroke-width:1.0;"/><polygon fill="#181818" points="1338.55,727,1329.55,723,1333.55,727,1329.55,731,1338.55,727" style="stroke:#181818;stroke-width:1.0;"/><text fill="#000000" font-family="sans-serif" font-size="13" lengthAdjust="spacing" textLength="52" x="1266" y="720.0669">EVM txn</text></g><!--link GossipExternal to GossipInternal--><g id="link_GossipExternal_GossipInternal"><path d="M1781,442.85 C1781,500.27 1781,645.69 1781,702.63 " fill="none" id="GossipExternal-GossipInternal" style="stroke:#181818;stroke-width:1.0;"/><polygon fill="#181818" points="1781,437.9,1777,446.9,1781,442.9,1785,446.9,1781,437.9" style="stroke:#181818;stroke-width:1.0;"/><polygon fill="#181818" points="1781,707.29,1785,698.29,1781,702.29,1777,698.29,1781,707.29" style="stroke:#181818;stroke-width:1.0;"/></g><!--reverse link Rollup to HotShotContract--><g id="link_Rollup_HotShotContract"><path d="M942.61,1157 C980.18,1157 1026.43,1157 1064.06,1157 " fill="none" id="Rollup-backto-HotShotContract" style="stroke:#181818;stroke-width:1.0;"/><polygon fill="#181818" points="937.69,1157,946.69,1161,942.69,1157,946.69,1153,937.69,1157" style="stroke:#181818;stroke-width:1.0;"/><text fill="#000000" font-family="sans-serif" font-size="13" lengthAdjust="spacing" textLength="92" x="954.25" y="1150.0669">batch_commit</text></g><!--link JsonRPC to State--><g id="link_JsonRPC_State"><path d="M982.32,86.82 C948.74,113.66 883.69,165.63 842.4,198.62 " fill="none" id="JsonRPC-to-State" style="stroke:#181818;stroke-width:1.0;"/><polygon fill="#181818" points="838.67,201.6,848.1932,199.0885,842.5702,198.4713,843.1873,192.8482,838.67,201.6" style="stroke:#181818;stroke-width:1.0;"/><text fill="#000000" font-family="sans-serif" font-size="13" lengthAdjust="spacing" textLength="68" x="930" y="154.0669">EVM query</text></g><!--link State to L2DB--><g id="link_State_L2DB"><path d="M837.39,229.5 C854.24,229.5 875.62,229.5 896.38,229.5 " fill="none" id="State-to-L2DB" style="stroke:#181818;stroke-width:1.0;"/><polygon fill="#181818" points="901.29,229.5,892.29,225.5,896.29,229.5,892.29,233.5,901.29,229.5" style="stroke:#181818;stroke-width:1.0;"/><text fill="#000000" font-family="sans-serif" font-size="13" lengthAdjust="spacing" textLength="29" x="855.5" y="222.5669">read</text></g><!--link State to Tree--><g id="link_State_Tree"><path d="M811.4,256.43 C819.35,288.7 832.99,343.98 842,380.51 " fill="none" id="State-to-Tree" style="stroke:#181818;stroke-width:1.0;"/><polygon fill="#181818" points="843.15,385.18,844.868,375.4821,841.9474,380.3268,837.1028,377.4062,843.15,385.18" style="stroke:#181818;stroke-width:1.0;"/><text fill="#000000" font-family="sans-serif" font-size="13" lengthAdjust="spacing" textLength="58" x="831" y="314.0669">accounts</text></g><!--link State to Executor--><g id="link_State_Executor"><path d="M837.34,244.88 C856.55,254.55 880.49,268.67 898,286 C930.53,318.2 955.43,366.17 968.29,394.25 " fill="none" id="State-to-Executor" style="stroke:#181818;stroke-width:1.0;"/><polygon fill="#181818" points="970.22,398.55,970.1629,388.7013,968.1628,393.9928,962.8713,391.9928,970.22,398.55" style="stroke:#181818;stroke-width:1.0;"/><text fill="#000000" font-family="sans-serif" font-size="13" lengthAdjust="spacing" textLength="53" x="936" y="314.0669">call, etc.</text></g><!--link Aggregator to State--><g id="link_Aggregator_State"><path d="M670.45,86.82 C695.83,113.55 744.89,165.21 776.24,198.21 " fill="none" id="Aggregator-to-State" style="stroke:#181818;stroke-width:1.0;"/><polygon fill="#181818" points="779.31,201.45,776.017,192.168,775.8685,197.8229,770.2136,197.6744,779.31,201.45" style="stroke:#181818;stroke-width:1.0;"/><text fill="#000000" font-family="sans-serif" font-size="13" lengthAdjust="spacing" textLength="32" x="757.5" y="139.0669">fetch</text><text fill="#000000" font-family="sans-serif" font-size="13" lengthAdjust="spacing" textLength="41" x="753" y="154.1997">prover</text><text fill="#000000" font-family="sans-serif" font-size="13" lengthAdjust="spacing" textLength="32" x="757.5" y="169.3325">input</text></g><!--link Aggregator to Etherman--><g id="link_Aggregator_Etherman"><path d="M639.31,86.88 C590.36,146.92 441.29,348.76 538,473 C582.49,530.16 624.47,501.57 696,513 C708.76,515.04 801.92,512.92 812,521 C867.69,565.6 874.15,658.73 873.9,702.42 " fill="none" id="Aggregator-to-Etherman" style="stroke:#181818;stroke-width:1.0;"/><polygon fill="#181818" points="873.84,707.23,877.9426,698.2763,873.8971,702.2303,869.9431,698.1849,873.84,707.23" style="stroke:#181818;stroke-width:1.0;"/><text fill="#000000" font-family="sans-serif" font-size="13" lengthAdjust="spacing" textLength="33" x="523" y="314.0669">proof</text></g><!--link Aggregator to Prover--><g id="link_Aggregator_Prover"><path d="M648.26,86.71 C634.11,132.67 602.91,259.74 663,333 C672.84,345 684.93,331.24 697,341 C713.38,354.24 722.73,376.7 727.78,393.78 " fill="none" id="Aggregator-to-Prover" style="stroke:#181818;stroke-width:1.0;"/><polygon fill="#181818" points="729.04,398.34,730.4748,388.5962,727.6966,393.5238,722.769,390.7456,729.04,398.34" style="stroke:#181818;stroke-width:1.0;"/><text fill="#000000" font-family="sans-serif" font-size="13" lengthAdjust="spacing" textLength="58" x="632" y="226.5669">generate</text><text fill="#000000" font-family="sans-serif" font-size="13" lengthAdjust="spacing" textLength="33" x="644.5" y="241.6997">proof</text></g><!--link Etherman to Rollup--><g id="link_Etherman_Rollup"><path d="M873,745.31 C873,812.41 873,1055.45 873,1132.44 " fill="none" id="Etherman-to-Rollup" style="stroke:#181818;stroke-width:1.0;"/><polygon fill="#181818" points="873,1137.43,877,1128.43,873,1132.43,869,1128.43,873,1137.43" style="stroke:#181818;stroke-width:1.0;"/><text fill="#000000" font-family="sans-serif" font-size="13" lengthAdjust="spacing" textLength="33" x="874" y="943.0669">proof</text></g><!--reverse link Etherman to HotShotContract--><g id="link_Etherman_HotShotContract"><path d="M886.7,750.47 C932.96,826.32 1082.71,1071.89 1123.6,1138.95 " fill="none" id="Etherman-backto-HotShotContract" style="stroke:#181818;stroke-width:1.0;"/><polygon fill="#181818" points="884.34,746.6,885.6027,756.3676,886.9397,750.871,892.4363,752.208,884.34,746.6" style="stroke:#181818;stroke-width:1.0;"/><text fill="#000000" font-family="sans-serif" font-size="13" lengthAdjust="spacing" textLength="92" x="1008" y="943.0669">batch_commit</text></g><!--reverse link Etherman to Adaptor--><g id="link_Etherman_Adaptor"><path d="M923.23,727 C954.91,727 996.235,727 1030.855,727 C1048.165,727 1063.7988,727 1075.7125,727 C1081.6694,727 1086.6963,727 1090.5377,727 C1090.6577,727 1090.7766,727 1090.8943,727 " fill="none" id="Etherman-backto-Adaptor" style="stroke:#181818;stroke-width:1.0;"/><polygon fill="#181818" points="918.36,727,927.36,731,923.36,727,927.36,723,918.36,727" style="stroke:#181818;stroke-width:1.0;"/><text fill="#000000" font-family="sans-serif" font-size="13" lengthAdjust="spacing" textLength="36" x="989.57" y="720.0669">batch</text></g><!--reverse link Adaptor to QueryService--><g id="link_Adaptor_QueryService"><path d="M1101.7625,777.6354 C1101.7962,777.7715 1101.8302,777.9076 1101.8646,778.0436 C1102.0018,778.5879 1102.1437,779.1316 1102.2904,779.6745 C1102.8773,781.8463 1103.5413,784.0057 1104.2914,786.1341 C1107.2919,794.6475 1111.67,802.665 1118,809 C1152.43,843.45 1287.62,864.87 1366.31,874.67 " fill="none" id="Adaptor-backto-QueryService" style="stroke:#181818;stroke-width:1.0;"/><polygon fill="#181818" points="1101.7625,777.6354,1100.0442,787.3332,1102.9649,782.4886,1107.8095,785.4093,1101.7625,777.6354" style="stroke:#181818;stroke-width:1.0;"/><text fill="#000000" font-family="sans-serif" font-size="13" lengthAdjust="spacing" textLength="36" x="1163" y="830.0669">batch</text></g><!--reverse link Synchronizer to Etherman--><g id="link_Synchronizer_Etherman"><path d="M636.57,440.3 C650.32,451.07 667.93,463.77 685,473 C738.07,501.71 770.9,476.82 812,521 C862.59,575.37 871.36,669.91 872.78,708.67 " fill="none" id="Synchronizer-backto-Etherman" style="stroke:#181818;stroke-width:1.0;"/><polygon fill="#181818" points="632.87,437.38,637.442,446.1034,636.7896,440.4842,642.4088,439.8319,632.87,437.38" style="stroke:#181818;stroke-width:1.0;"/><text fill="#000000" font-family="sans-serif" font-size="13" lengthAdjust="spacing" textLength="36" x="833.5" y="494.0669">batch</text><text fill="#000000" font-family="sans-serif" font-size="13" lengthAdjust="spacing" textLength="95" x="804" y="509.1997">global exit root</text></g><!--reverse link State to Synchronizer--><g id="link_State_Synchronizer"><path d="M767.13,249.93 C750.24,259.56 730.66,272.09 715,286 C675.27,321.29 639.19,373.07 621.85,399.73 " fill="none" id="State-backto-Synchronizer" style="stroke:#181818;stroke-width:1.0;"/><polygon fill="#181818" points="771.43,247.52,761.6258,248.4567,767.0748,249.9761,765.5555,255.4251,771.43,247.52" style="stroke:#181818;stroke-width:1.0;"/><text fill="#000000" font-family="sans-serif" font-size="13" lengthAdjust="spacing" textLength="36" x="745.5" y="299.0669">batch</text><text fill="#000000" font-family="sans-serif" font-size="13" lengthAdjust="spacing" textLength="95" x="716" y="314.1997">global exit root</text><text fill="#000000" font-family="sans-serif" font-size="13" lengthAdjust="spacing" textLength="33" x="747" y="329.3325">state</text></g><!--link Submit to App--><g id="link_Submit_App"><path d="M1433.9,727 C1463.27,727 1501.4625,727 1533.3975,727 C1549.365,727 1563.7681,727 1574.7219,727 C1577.4603,727 1579.9832,727 1582.261,727 C1583.3999,727 1584.4775,727 1585.4902,727 C1585.9966,727 1586.4867,727 1586.9601,727 C1587.1968,727 1587.4294,727 1587.6577,727 C1587.7718,727 1587.8849,727 1587.997,727 " fill="none" id="Submit-to-App" style="stroke:#181818;stroke-width:1.0;"/><polygon fill="#181818" points="1587.997,727,1578.997,723,1582.997,727,1578.997,731,1587.997,727" style="stroke:#181818;stroke-width:1.0;"/><text fill="#000000" font-family="sans-serif" font-size="13" lengthAdjust="spacing" textLength="126" x="1451.57" y="720.0669">wrap in HotShot txn</text></g><!--link HotShotEvents to QueryService--><g id="link_HotShotEvents_QueryService"><path d="M1674.41,745.3 C1669.75,763.59 1659.87,792.07 1641,809 C1598.45,847.18 1535.09,865.19 1487.8,873.64 " fill="none" id="HotShotEvents-to-QueryService" style="stroke:#181818;stroke-width:1.0;"/><polygon fill="#181818" points="1483.02,874.46,1492.5723,876.8588,1487.9461,873.6033,1491.2015,868.9771,1483.02,874.46" style="stroke:#181818;stroke-width:1.0;"/></g><!--link QueryService to HotShotCommitment--><g id="link_QueryService_HotShotCommitment"><path d="M1424,900.34 C1424,919.16 1424,949.32 1424,970.31 " fill="none" id="QueryService-to-HotShotCommitment" style="stroke:#181818;stroke-width:1.0;"/><polygon fill="#181818" points="1424,975.26,1428,966.26,1424,970.26,1420,966.26,1424,975.26" style="stroke:#181818;stroke-width:1.0;"/><text fill="#000000" font-family="sans-serif" font-size="13" lengthAdjust="spacing" textLength="119" x="1425" y="943.0669">batch_commit, QC</text></g><!--link HotShotCommitment to HotShotContract--><g id="link_HotShotCommitment_HotShotContract"><path d="M1392.41,1013.43 C1338.37,1043.24 1228.45,1103.89 1170.95,1135.62 " fill="none" id="HotShotCommitment-to-HotShotContract" style="stroke:#181818;stroke-width:1.0;"/><polygon fill="#181818" points="1166.87,1137.86,1176.6821,1137.0104,1171.2468,1135.4427,1172.8145,1130.0074,1166.87,1137.86" style="stroke:#181818;stroke-width:1.0;"/><text fill="#000000" font-family="sans-serif" font-size="13" lengthAdjust="spacing" textLength="119" x="1288" y="1082.0669">batch_commit, QC</text></g><!--SRC=[XLRTRnev47_tNs6H1rg9ZPGyeYXIFb2l5MbfwTqzbEXaTeV5Oh6tNc-0dFg_t_XhiPVGoqE0cT-Cv-CtOpSRBcgcs9RcSbjB0KBFzQ42gY3NJ9GL4B92DT0fb20A-Y-XHoWTl6xWPPi9MG0Ti8RoPZ2W-Fb5yP8BLj6B6QlWWm8GP-ssik0h3eKrVF8_wCMKbsizusAJ6WhOMU1ds95VXE07pNwiUL60U5RPRNSowK98rC4_8KUVVpQWwCNVQww1r2pVi1AJ-KFg-LhgXNWdzHhrN3HOZnoQz_PuhvxiDIXpIAyi7sJJyDeYtTS0D35tPpn2ZcZ5AlwA6S_XPmjuWXfORntgTJFvwucoshbxtTpLjGKa1tvjGHtGXNhXELYWbNX17prlbrkkwTtieuMwdnRKdVfzBpAf2b1Sb27RBeXZ24UBW0dotzVZe_3rU0CyUS6F9YcpbNZiBtBy7rc5yr64oMnH5djuwAJ4sCPTc5xJkuBLMYgNc_lUx-Yd-PVFsRVP0nAYSTMJeZgyZqry6MFV4yCTQBTqUcMHqwk-ts-ogjgQFaX3XDp5x6N920YfWLQmmdDN7c0h40oxCQ9Q8jZgAYbAf6w3iG5TCfsleRb4ZPbZuu-yMS0abAvyJeOMmzZcNl42y_JPkL-OOpJrM8sarE-Ea- -AXxAq99yQAR3GwUf8qlU8aF-AbwroYQ-asZ5LM0q6B1gCcKlH61ss8cOwaj_uCb8CWRaMzgfJCCsMh368n_ie8Fh3ka2x-qhcctpDkA2FzoXyZYTt9gj3AGLr4pnJyWMK7s8KkDyde-p5IVQnVhA7l3K4xI6wMB-Zw3HM6-rSCooZ3TJyFO7QLCx0Ifw9cwlX6ns-ZZjyVMwlMxvlcVWDTmF4djZXO_Qk09bgrPQpVgARaV4JQ3oo-fMIvk9ot1nH9dhsfhchjgg2bJD0gTK6mYUxy-nyt9MbWfATL3vUgwQy2p7bIyNKmQrMM_4p1lE3oDTA2bp_gZSpzaxAJCtmql9y7rD38xqN2s6-_3HXaw53XZlkDb1yMCk6U-vZ5IngAVTuZr56bw1n_TAwOdWtd7YONXCIXX1FJxPR5mD9n0RN1v1qqzERhAqHrhiFoJ2vgRgSlVknQzq_ZWF4RyQRhB-OUhWkV1ENQO4BovMCkAPajtQin_ZKOKMGeT2CmvYoF9UjkNIEYZ1vOvgpgXfHfDab8H4lejCi1nUYjiEy4FZ8QdKV6iW_fWYJgxxQBO8nnMSNA4ii1-jcne1SGOA7JdMJAJD__rUc2DyhU6YlqSJz2Ug4kZTP5YLZ0GjyEiebTXtso0uCJlj26cniV1Q_C0ykd44aY5-9bvUttG92gQDjricko96B-40PqvrYjU5xc7D3okH1GRD2xWJ2axSIIVde8IVlYBIK8_hrWPnWJgtVQeEr_Gy0]--></g></svg>